%TF.GenerationSoftware,KiCad,Pcbnew,6.0.7-f9a2dced07~116~ubuntu20.04.1*%
%TF.CreationDate,2022-09-09T19:22:18+05:30*%
%TF.ProjectId,ESP12E_Smart_Coaster,45535031-3245-45f5-936d-6172745f436f,rev?*%
%TF.SameCoordinates,Original*%
%TF.FileFunction,Legend,Bot*%
%TF.FilePolarity,Positive*%
%FSLAX46Y46*%
G04 Gerber Fmt 4.6, Leading zero omitted, Abs format (unit mm)*
G04 Created by KiCad (PCBNEW 6.0.7-f9a2dced07~116~ubuntu20.04.1) date 2022-09-09 19:22:18*
%MOMM*%
%LPD*%
G01*
G04 APERTURE LIST*
%ADD10C,0.150000*%
%ADD11C,0.200000*%
%ADD12C,0.120000*%
G04 APERTURE END LIST*
D10*
X172415552Y-98674180D02*
X172415552Y-97674180D01*
X171986980Y-98674180D02*
X171986980Y-98150371D01*
X172034600Y-98055133D01*
X172129838Y-98007514D01*
X172272695Y-98007514D01*
X172367933Y-98055133D01*
X172415552Y-98102752D01*
X171653647Y-98007514D02*
X171272695Y-98007514D01*
X171510790Y-97674180D02*
X171510790Y-98531323D01*
X171463171Y-98626561D01*
X171367933Y-98674180D01*
X171272695Y-98674180D01*
X171082219Y-98007514D02*
X170701266Y-98007514D01*
X170939361Y-97674180D02*
X170939361Y-98531323D01*
X170891742Y-98626561D01*
X170796504Y-98674180D01*
X170701266Y-98674180D01*
X170367933Y-98007514D02*
X170367933Y-99007514D01*
X170367933Y-98055133D02*
X170272695Y-98007514D01*
X170082219Y-98007514D01*
X169986980Y-98055133D01*
X169939361Y-98102752D01*
X169891742Y-98197990D01*
X169891742Y-98483704D01*
X169939361Y-98578942D01*
X169986980Y-98626561D01*
X170082219Y-98674180D01*
X170272695Y-98674180D01*
X170367933Y-98626561D01*
X169510790Y-98626561D02*
X169415552Y-98674180D01*
X169225076Y-98674180D01*
X169129838Y-98626561D01*
X169082219Y-98531323D01*
X169082219Y-98483704D01*
X169129838Y-98388466D01*
X169225076Y-98340847D01*
X169367933Y-98340847D01*
X169463171Y-98293228D01*
X169510790Y-98197990D01*
X169510790Y-98150371D01*
X169463171Y-98055133D01*
X169367933Y-98007514D01*
X169225076Y-98007514D01*
X169129838Y-98055133D01*
X168653647Y-98578942D02*
X168606028Y-98626561D01*
X168653647Y-98674180D01*
X168701266Y-98626561D01*
X168653647Y-98578942D01*
X168653647Y-98674180D01*
X168653647Y-98055133D02*
X168606028Y-98102752D01*
X168653647Y-98150371D01*
X168701266Y-98102752D01*
X168653647Y-98055133D01*
X168653647Y-98150371D01*
X167463171Y-97626561D02*
X168320314Y-98912276D01*
X166415552Y-97626561D02*
X167272695Y-98912276D01*
X166177457Y-98007514D02*
X165986980Y-98674180D01*
X165796504Y-98197990D01*
X165606028Y-98674180D01*
X165415552Y-98007514D01*
X165129838Y-98007514D02*
X164939361Y-98674180D01*
X164748885Y-98197990D01*
X164558409Y-98674180D01*
X164367933Y-98007514D01*
X164082219Y-98007514D02*
X163891742Y-98674180D01*
X163701266Y-98197990D01*
X163510790Y-98674180D01*
X163320314Y-98007514D01*
X162939361Y-98578942D02*
X162891742Y-98626561D01*
X162939361Y-98674180D01*
X162986980Y-98626561D01*
X162939361Y-98578942D01*
X162939361Y-98674180D01*
X162463171Y-98674180D02*
X162463171Y-97674180D01*
X162034600Y-98674180D02*
X162034600Y-98150371D01*
X162082219Y-98055133D01*
X162177457Y-98007514D01*
X162320314Y-98007514D01*
X162415552Y-98055133D01*
X162463171Y-98102752D01*
X161558409Y-98007514D02*
X161558409Y-98674180D01*
X161558409Y-98102752D02*
X161510790Y-98055133D01*
X161415552Y-98007514D01*
X161272695Y-98007514D01*
X161177457Y-98055133D01*
X161129838Y-98150371D01*
X161129838Y-98674180D01*
X160653647Y-98674180D02*
X160653647Y-97674180D01*
X160225076Y-98674180D02*
X160225076Y-98150371D01*
X160272695Y-98055133D01*
X160367933Y-98007514D01*
X160510790Y-98007514D01*
X160606028Y-98055133D01*
X160653647Y-98102752D01*
X159320314Y-98626561D02*
X159415552Y-98674180D01*
X159606028Y-98674180D01*
X159701266Y-98626561D01*
X159748885Y-98578942D01*
X159796504Y-98483704D01*
X159796504Y-98197990D01*
X159748885Y-98102752D01*
X159701266Y-98055133D01*
X159606028Y-98007514D01*
X159415552Y-98007514D01*
X159320314Y-98055133D01*
X158463171Y-98674180D02*
X158463171Y-98150371D01*
X158510790Y-98055133D01*
X158606028Y-98007514D01*
X158796504Y-98007514D01*
X158891742Y-98055133D01*
X158463171Y-98626561D02*
X158558409Y-98674180D01*
X158796504Y-98674180D01*
X158891742Y-98626561D01*
X158939361Y-98531323D01*
X158939361Y-98436085D01*
X158891742Y-98340847D01*
X158796504Y-98293228D01*
X158558409Y-98293228D01*
X158463171Y-98245609D01*
X157986980Y-98674180D02*
X157986980Y-98007514D01*
X157986980Y-98197990D02*
X157939361Y-98102752D01*
X157891742Y-98055133D01*
X157796504Y-98007514D01*
X157701266Y-98007514D01*
X157510790Y-98007514D02*
X157129838Y-98007514D01*
X157367933Y-97674180D02*
X157367933Y-98531323D01*
X157320314Y-98626561D01*
X157225076Y-98674180D01*
X157129838Y-98674180D01*
X156796504Y-98578942D02*
X156748885Y-98626561D01*
X156796504Y-98674180D01*
X156844123Y-98626561D01*
X156796504Y-98578942D01*
X156796504Y-98674180D01*
X155891742Y-98626561D02*
X155986980Y-98674180D01*
X156177457Y-98674180D01*
X156272695Y-98626561D01*
X156320314Y-98578942D01*
X156367933Y-98483704D01*
X156367933Y-98197990D01*
X156320314Y-98102752D01*
X156272695Y-98055133D01*
X156177457Y-98007514D01*
X155986980Y-98007514D01*
X155891742Y-98055133D01*
X155320314Y-98674180D02*
X155415552Y-98626561D01*
X155463171Y-98578942D01*
X155510790Y-98483704D01*
X155510790Y-98197990D01*
X155463171Y-98102752D01*
X155415552Y-98055133D01*
X155320314Y-98007514D01*
X155177457Y-98007514D01*
X155082219Y-98055133D01*
X155034600Y-98102752D01*
X154986980Y-98197990D01*
X154986980Y-98483704D01*
X155034600Y-98578942D01*
X155082219Y-98626561D01*
X155177457Y-98674180D01*
X155320314Y-98674180D01*
X154558409Y-98674180D02*
X154558409Y-98007514D01*
X154558409Y-98102752D02*
X154510790Y-98055133D01*
X154415552Y-98007514D01*
X154272695Y-98007514D01*
X154177457Y-98055133D01*
X154129838Y-98150371D01*
X154129838Y-98674180D01*
X154129838Y-98150371D02*
X154082219Y-98055133D01*
X153986980Y-98007514D01*
X153844123Y-98007514D01*
X153748885Y-98055133D01*
X153701266Y-98150371D01*
X153701266Y-98674180D01*
X152510790Y-97626561D02*
X153367933Y-98912276D01*
X164484723Y-83135790D02*
X164532342Y-83088171D01*
X164627580Y-83040552D01*
X164722819Y-83040552D01*
X164818057Y-83088171D01*
X164865676Y-83135790D01*
X164913295Y-83231028D01*
X164913295Y-83326266D01*
X164865676Y-83421504D01*
X164818057Y-83469123D01*
X164722819Y-83516742D01*
X164627580Y-83516742D01*
X164532342Y-83469123D01*
X164484723Y-83421504D01*
X164484723Y-83040552D02*
X164484723Y-83421504D01*
X164437104Y-83469123D01*
X164389485Y-83469123D01*
X164294247Y-83421504D01*
X164246628Y-83326266D01*
X164246628Y-83088171D01*
X164341866Y-82945314D01*
X164484723Y-82850076D01*
X164675200Y-82802457D01*
X164865676Y-82850076D01*
X165008533Y-82945314D01*
X165103771Y-83088171D01*
X165151390Y-83278647D01*
X165103771Y-83469123D01*
X165008533Y-83611980D01*
X164865676Y-83707219D01*
X164675200Y-83754838D01*
X164484723Y-83707219D01*
X164341866Y-83611980D01*
X163389485Y-83611980D02*
X163389485Y-83088171D01*
X163437104Y-82992933D01*
X163532342Y-82945314D01*
X163722819Y-82945314D01*
X163818057Y-82992933D01*
X163389485Y-83564361D02*
X163484723Y-83611980D01*
X163722819Y-83611980D01*
X163818057Y-83564361D01*
X163865676Y-83469123D01*
X163865676Y-83373885D01*
X163818057Y-83278647D01*
X163722819Y-83231028D01*
X163484723Y-83231028D01*
X163389485Y-83183409D01*
X162913295Y-83516742D02*
X162865676Y-83564361D01*
X162913295Y-83611980D01*
X162960914Y-83564361D01*
X162913295Y-83516742D01*
X162913295Y-83611980D01*
X162579961Y-82945314D02*
X162199009Y-82945314D01*
X162437104Y-82611980D02*
X162437104Y-83469123D01*
X162389485Y-83564361D01*
X162294247Y-83611980D01*
X162199009Y-83611980D01*
X161865676Y-83516742D02*
X161818057Y-83564361D01*
X161865676Y-83611980D01*
X161913295Y-83564361D01*
X161865676Y-83516742D01*
X161865676Y-83611980D01*
X161246628Y-83611980D02*
X161341866Y-83564361D01*
X161389485Y-83516742D01*
X161437104Y-83421504D01*
X161437104Y-83135790D01*
X161389485Y-83040552D01*
X161341866Y-82992933D01*
X161246628Y-82945314D01*
X161103771Y-82945314D01*
X161008533Y-82992933D01*
X160960914Y-83040552D01*
X160913295Y-83135790D01*
X160913295Y-83421504D01*
X160960914Y-83516742D01*
X161008533Y-83564361D01*
X161103771Y-83611980D01*
X161246628Y-83611980D01*
X160484723Y-83516742D02*
X160437104Y-83564361D01*
X160484723Y-83611980D01*
X160532342Y-83564361D01*
X160484723Y-83516742D01*
X160484723Y-83611980D01*
X160008533Y-83611980D02*
X160008533Y-82945314D01*
X160008533Y-83040552D02*
X159960914Y-82992933D01*
X159865676Y-82945314D01*
X159722819Y-82945314D01*
X159627580Y-82992933D01*
X159579961Y-83088171D01*
X159579961Y-83611980D01*
X159579961Y-83088171D02*
X159532342Y-82992933D01*
X159437104Y-82945314D01*
X159294247Y-82945314D01*
X159199009Y-82992933D01*
X159151390Y-83088171D01*
X159151390Y-83611980D01*
X158913295Y-83707219D02*
X158151390Y-83707219D01*
X157913295Y-83611980D02*
X157913295Y-82945314D01*
X157913295Y-83135790D02*
X157865676Y-83040552D01*
X157818057Y-82992933D01*
X157722819Y-82945314D01*
X157627580Y-82945314D01*
X157151390Y-83611980D02*
X157246628Y-83564361D01*
X157294247Y-83516742D01*
X157341866Y-83421504D01*
X157341866Y-83135790D01*
X157294247Y-83040552D01*
X157246628Y-82992933D01*
X157151390Y-82945314D01*
X157008533Y-82945314D01*
X156913295Y-82992933D01*
X156865676Y-83040552D01*
X156818057Y-83135790D01*
X156818057Y-83421504D01*
X156865676Y-83516742D01*
X156913295Y-83564361D01*
X157008533Y-83611980D01*
X157151390Y-83611980D01*
X156389485Y-83611980D02*
X156389485Y-82611980D01*
X156389485Y-82992933D02*
X156294247Y-82945314D01*
X156103771Y-82945314D01*
X156008533Y-82992933D01*
X155960914Y-83040552D01*
X155913295Y-83135790D01*
X155913295Y-83421504D01*
X155960914Y-83516742D01*
X156008533Y-83564361D01*
X156103771Y-83611980D01*
X156294247Y-83611980D01*
X156389485Y-83564361D01*
X155341866Y-83611980D02*
X155437104Y-83564361D01*
X155484723Y-83516742D01*
X155532342Y-83421504D01*
X155532342Y-83135790D01*
X155484723Y-83040552D01*
X155437104Y-82992933D01*
X155341866Y-82945314D01*
X155199009Y-82945314D01*
X155103771Y-82992933D01*
X155056152Y-83040552D01*
X155008533Y-83135790D01*
X155008533Y-83421504D01*
X155056152Y-83516742D01*
X155103771Y-83564361D01*
X155199009Y-83611980D01*
X155341866Y-83611980D01*
X154722819Y-82945314D02*
X154341866Y-82945314D01*
X154579961Y-82611980D02*
X154579961Y-83469123D01*
X154532342Y-83564361D01*
X154437104Y-83611980D01*
X154341866Y-83611980D01*
X154008533Y-83611980D02*
X154008533Y-82945314D01*
X154008533Y-82611980D02*
X154056152Y-82659600D01*
X154008533Y-82707219D01*
X153960914Y-82659600D01*
X154008533Y-82611980D01*
X154008533Y-82707219D01*
X153103771Y-83564361D02*
X153199009Y-83611980D01*
X153389485Y-83611980D01*
X153484723Y-83564361D01*
X153532342Y-83516742D01*
X153579961Y-83421504D01*
X153579961Y-83135790D01*
X153532342Y-83040552D01*
X153484723Y-82992933D01*
X153389485Y-82945314D01*
X153199009Y-82945314D01*
X153103771Y-82992933D01*
X152722819Y-83564361D02*
X152627580Y-83611980D01*
X152437104Y-83611980D01*
X152341866Y-83564361D01*
X152294247Y-83469123D01*
X152294247Y-83421504D01*
X152341866Y-83326266D01*
X152437104Y-83278647D01*
X152579961Y-83278647D01*
X152675200Y-83231028D01*
X152722819Y-83135790D01*
X152722819Y-83088171D01*
X152675200Y-82992933D01*
X152579961Y-82945314D01*
X152437104Y-82945314D01*
X152341866Y-82992933D01*
X152103771Y-83707219D02*
X151341866Y-83707219D01*
X150960914Y-83611980D02*
X151056152Y-83564361D01*
X151103771Y-83469123D01*
X151103771Y-82611980D01*
X150151390Y-83611980D02*
X150151390Y-83088171D01*
X150199009Y-82992933D01*
X150294247Y-82945314D01*
X150484723Y-82945314D01*
X150579961Y-82992933D01*
X150151390Y-83564361D02*
X150246628Y-83611980D01*
X150484723Y-83611980D01*
X150579961Y-83564361D01*
X150627580Y-83469123D01*
X150627580Y-83373885D01*
X150579961Y-83278647D01*
X150484723Y-83231028D01*
X150246628Y-83231028D01*
X150151390Y-83183409D01*
X149675200Y-83611980D02*
X149675200Y-82611980D01*
X149675200Y-82992933D02*
X149579961Y-82945314D01*
X149389485Y-82945314D01*
X149294247Y-82992933D01*
X149246628Y-83040552D01*
X149199009Y-83135790D01*
X149199009Y-83421504D01*
X149246628Y-83516742D01*
X149294247Y-83564361D01*
X149389485Y-83611980D01*
X149579961Y-83611980D01*
X149675200Y-83564361D01*
X176442495Y-96108780D02*
X176442495Y-95108780D01*
X176013923Y-96108780D02*
X176013923Y-95584971D01*
X176061542Y-95489733D01*
X176156780Y-95442114D01*
X176299638Y-95442114D01*
X176394876Y-95489733D01*
X176442495Y-95537352D01*
X175680590Y-95442114D02*
X175299638Y-95442114D01*
X175537733Y-95108780D02*
X175537733Y-95965923D01*
X175490114Y-96061161D01*
X175394876Y-96108780D01*
X175299638Y-96108780D01*
X175109161Y-95442114D02*
X174728209Y-95442114D01*
X174966304Y-95108780D02*
X174966304Y-95965923D01*
X174918685Y-96061161D01*
X174823447Y-96108780D01*
X174728209Y-96108780D01*
X174394876Y-95442114D02*
X174394876Y-96442114D01*
X174394876Y-95489733D02*
X174299638Y-95442114D01*
X174109161Y-95442114D01*
X174013923Y-95489733D01*
X173966304Y-95537352D01*
X173918685Y-95632590D01*
X173918685Y-95918304D01*
X173966304Y-96013542D01*
X174013923Y-96061161D01*
X174109161Y-96108780D01*
X174299638Y-96108780D01*
X174394876Y-96061161D01*
X173537733Y-96061161D02*
X173442495Y-96108780D01*
X173252019Y-96108780D01*
X173156780Y-96061161D01*
X173109161Y-95965923D01*
X173109161Y-95918304D01*
X173156780Y-95823066D01*
X173252019Y-95775447D01*
X173394876Y-95775447D01*
X173490114Y-95727828D01*
X173537733Y-95632590D01*
X173537733Y-95584971D01*
X173490114Y-95489733D01*
X173394876Y-95442114D01*
X173252019Y-95442114D01*
X173156780Y-95489733D01*
X172680590Y-96013542D02*
X172632971Y-96061161D01*
X172680590Y-96108780D01*
X172728209Y-96061161D01*
X172680590Y-96013542D01*
X172680590Y-96108780D01*
X172680590Y-95489733D02*
X172632971Y-95537352D01*
X172680590Y-95584971D01*
X172728209Y-95537352D01*
X172680590Y-95489733D01*
X172680590Y-95584971D01*
X171490114Y-95061161D02*
X172347257Y-96346876D01*
X170442495Y-95061161D02*
X171299638Y-96346876D01*
X169680590Y-96108780D02*
X169680590Y-95584971D01*
X169728209Y-95489733D01*
X169823447Y-95442114D01*
X170013923Y-95442114D01*
X170109161Y-95489733D01*
X169680590Y-96061161D02*
X169775828Y-96108780D01*
X170013923Y-96108780D01*
X170109161Y-96061161D01*
X170156780Y-95965923D01*
X170156780Y-95870685D01*
X170109161Y-95775447D01*
X170013923Y-95727828D01*
X169775828Y-95727828D01*
X169680590Y-95680209D01*
X169347257Y-95442114D02*
X168966304Y-95442114D01*
X169204400Y-95108780D02*
X169204400Y-95965923D01*
X169156780Y-96061161D01*
X169061542Y-96108780D01*
X168966304Y-96108780D01*
X168490114Y-96108780D02*
X168585352Y-96061161D01*
X168632971Y-96013542D01*
X168680590Y-95918304D01*
X168680590Y-95632590D01*
X168632971Y-95537352D01*
X168585352Y-95489733D01*
X168490114Y-95442114D01*
X168347257Y-95442114D01*
X168252019Y-95489733D01*
X168204400Y-95537352D01*
X168156780Y-95632590D01*
X168156780Y-95918304D01*
X168204400Y-96013542D01*
X168252019Y-96061161D01*
X168347257Y-96108780D01*
X168490114Y-96108780D01*
X167728209Y-96108780D02*
X167728209Y-95442114D01*
X167728209Y-95537352D02*
X167680590Y-95489733D01*
X167585352Y-95442114D01*
X167442495Y-95442114D01*
X167347257Y-95489733D01*
X167299638Y-95584971D01*
X167299638Y-96108780D01*
X167299638Y-95584971D02*
X167252019Y-95489733D01*
X167156780Y-95442114D01*
X167013923Y-95442114D01*
X166918685Y-95489733D01*
X166871066Y-95584971D01*
X166871066Y-96108780D01*
X166394876Y-95727828D02*
X165632971Y-95727828D01*
X165156780Y-96108780D02*
X165156780Y-95442114D01*
X165156780Y-95632590D02*
X165109161Y-95537352D01*
X165061542Y-95489733D01*
X164966304Y-95442114D01*
X164871066Y-95442114D01*
X164394876Y-96108780D02*
X164490114Y-96061161D01*
X164537733Y-96013542D01*
X164585352Y-95918304D01*
X164585352Y-95632590D01*
X164537733Y-95537352D01*
X164490114Y-95489733D01*
X164394876Y-95442114D01*
X164252019Y-95442114D01*
X164156780Y-95489733D01*
X164109161Y-95537352D01*
X164061542Y-95632590D01*
X164061542Y-95918304D01*
X164109161Y-96013542D01*
X164156780Y-96061161D01*
X164252019Y-96108780D01*
X164394876Y-96108780D01*
X163632971Y-96108780D02*
X163632971Y-95108780D01*
X163632971Y-95489733D02*
X163537733Y-95442114D01*
X163347257Y-95442114D01*
X163252019Y-95489733D01*
X163204400Y-95537352D01*
X163156780Y-95632590D01*
X163156780Y-95918304D01*
X163204400Y-96013542D01*
X163252019Y-96061161D01*
X163347257Y-96108780D01*
X163537733Y-96108780D01*
X163632971Y-96061161D01*
X162585352Y-96108780D02*
X162680590Y-96061161D01*
X162728209Y-96013542D01*
X162775828Y-95918304D01*
X162775828Y-95632590D01*
X162728209Y-95537352D01*
X162680590Y-95489733D01*
X162585352Y-95442114D01*
X162442495Y-95442114D01*
X162347257Y-95489733D01*
X162299638Y-95537352D01*
X162252019Y-95632590D01*
X162252019Y-95918304D01*
X162299638Y-96013542D01*
X162347257Y-96061161D01*
X162442495Y-96108780D01*
X162585352Y-96108780D01*
X161966304Y-95442114D02*
X161585352Y-95442114D01*
X161823447Y-95108780D02*
X161823447Y-95965923D01*
X161775828Y-96061161D01*
X161680590Y-96108780D01*
X161585352Y-96108780D01*
X161252019Y-96108780D02*
X161252019Y-95442114D01*
X161252019Y-95108780D02*
X161299638Y-95156400D01*
X161252019Y-95204019D01*
X161204400Y-95156400D01*
X161252019Y-95108780D01*
X161252019Y-95204019D01*
X160347257Y-96061161D02*
X160442495Y-96108780D01*
X160632971Y-96108780D01*
X160728209Y-96061161D01*
X160775828Y-96013542D01*
X160823447Y-95918304D01*
X160823447Y-95632590D01*
X160775828Y-95537352D01*
X160728209Y-95489733D01*
X160632971Y-95442114D01*
X160442495Y-95442114D01*
X160347257Y-95489733D01*
X159966304Y-96061161D02*
X159871066Y-96108780D01*
X159680590Y-96108780D01*
X159585352Y-96061161D01*
X159537733Y-95965923D01*
X159537733Y-95918304D01*
X159585352Y-95823066D01*
X159680590Y-95775447D01*
X159823447Y-95775447D01*
X159918685Y-95727828D01*
X159966304Y-95632590D01*
X159966304Y-95584971D01*
X159918685Y-95489733D01*
X159823447Y-95442114D01*
X159680590Y-95442114D01*
X159585352Y-95489733D01*
X159109161Y-95727828D02*
X158347257Y-95727828D01*
X157728209Y-96108780D02*
X157823447Y-96061161D01*
X157871066Y-95965923D01*
X157871066Y-95108780D01*
X156918685Y-96108780D02*
X156918685Y-95584971D01*
X156966304Y-95489733D01*
X157061542Y-95442114D01*
X157252019Y-95442114D01*
X157347257Y-95489733D01*
X156918685Y-96061161D02*
X157013923Y-96108780D01*
X157252019Y-96108780D01*
X157347257Y-96061161D01*
X157394876Y-95965923D01*
X157394876Y-95870685D01*
X157347257Y-95775447D01*
X157252019Y-95727828D01*
X157013923Y-95727828D01*
X156918685Y-95680209D01*
X156442495Y-96108780D02*
X156442495Y-95108780D01*
X156442495Y-95489733D02*
X156347257Y-95442114D01*
X156156780Y-95442114D01*
X156061542Y-95489733D01*
X156013923Y-95537352D01*
X155966304Y-95632590D01*
X155966304Y-95918304D01*
X156013923Y-96013542D01*
X156061542Y-96061161D01*
X156156780Y-96108780D01*
X156347257Y-96108780D01*
X156442495Y-96061161D01*
X155537733Y-96013542D02*
X155490114Y-96061161D01*
X155537733Y-96108780D01*
X155585352Y-96061161D01*
X155537733Y-96013542D01*
X155537733Y-96108780D01*
X154632971Y-95442114D02*
X154632971Y-96251638D01*
X154680590Y-96346876D01*
X154728209Y-96394495D01*
X154823447Y-96442114D01*
X154966304Y-96442114D01*
X155061542Y-96394495D01*
X154632971Y-96061161D02*
X154728209Y-96108780D01*
X154918685Y-96108780D01*
X155013923Y-96061161D01*
X155061542Y-96013542D01*
X155109161Y-95918304D01*
X155109161Y-95632590D01*
X155061542Y-95537352D01*
X155013923Y-95489733D01*
X154918685Y-95442114D01*
X154728209Y-95442114D01*
X154632971Y-95489733D01*
X154156780Y-96108780D02*
X154156780Y-95442114D01*
X154156780Y-95108780D02*
X154204400Y-95156400D01*
X154156780Y-95204019D01*
X154109161Y-95156400D01*
X154156780Y-95108780D01*
X154156780Y-95204019D01*
X153823447Y-95442114D02*
X153442495Y-95442114D01*
X153680590Y-95108780D02*
X153680590Y-95965923D01*
X153632971Y-96061161D01*
X153537733Y-96108780D01*
X153442495Y-96108780D01*
X153109161Y-96108780D02*
X153109161Y-95108780D01*
X152680590Y-96108780D02*
X152680590Y-95584971D01*
X152728209Y-95489733D01*
X152823447Y-95442114D01*
X152966304Y-95442114D01*
X153061542Y-95489733D01*
X153109161Y-95537352D01*
X151775828Y-95442114D02*
X151775828Y-96108780D01*
X152204400Y-95442114D02*
X152204400Y-95965923D01*
X152156780Y-96061161D01*
X152061542Y-96108780D01*
X151918685Y-96108780D01*
X151823447Y-96061161D01*
X151775828Y-96013542D01*
X151299638Y-96108780D02*
X151299638Y-95108780D01*
X151299638Y-95489733D02*
X151204400Y-95442114D01*
X151013923Y-95442114D01*
X150918685Y-95489733D01*
X150871066Y-95537352D01*
X150823447Y-95632590D01*
X150823447Y-95918304D01*
X150871066Y-96013542D01*
X150918685Y-96061161D01*
X151013923Y-96108780D01*
X151204400Y-96108780D01*
X151299638Y-96061161D01*
X150394876Y-96013542D02*
X150347257Y-96061161D01*
X150394876Y-96108780D01*
X150442495Y-96061161D01*
X150394876Y-96013542D01*
X150394876Y-96108780D01*
X149918685Y-96108780D02*
X149918685Y-95442114D01*
X149918685Y-95108780D02*
X149966304Y-95156400D01*
X149918685Y-95204019D01*
X149871066Y-95156400D01*
X149918685Y-95108780D01*
X149918685Y-95204019D01*
X149299638Y-96108780D02*
X149394876Y-96061161D01*
X149442495Y-96013542D01*
X149490114Y-95918304D01*
X149490114Y-95632590D01*
X149442495Y-95537352D01*
X149394876Y-95489733D01*
X149299638Y-95442114D01*
X149156780Y-95442114D01*
X149061542Y-95489733D01*
X149013923Y-95537352D01*
X148966304Y-95632590D01*
X148966304Y-95918304D01*
X149013923Y-96013542D01*
X149061542Y-96061161D01*
X149156780Y-96108780D01*
X149299638Y-96108780D01*
X147823447Y-95061161D02*
X148680590Y-96346876D01*
D11*
X150025333Y-107046780D02*
X149406285Y-107046780D01*
X149739619Y-107427733D01*
X149596761Y-107427733D01*
X149501523Y-107475352D01*
X149453904Y-107522971D01*
X149406285Y-107618209D01*
X149406285Y-107856304D01*
X149453904Y-107951542D01*
X149501523Y-107999161D01*
X149596761Y-108046780D01*
X149882476Y-108046780D01*
X149977714Y-107999161D01*
X150025333Y-107951542D01*
X148977714Y-107951542D02*
X148930095Y-107999161D01*
X148977714Y-108046780D01*
X149025333Y-107999161D01*
X148977714Y-107951542D01*
X148977714Y-108046780D01*
X148596761Y-107046780D02*
X147930095Y-107046780D01*
X148358666Y-108046780D01*
X147692000Y-107046780D02*
X147358666Y-108046780D01*
X147025333Y-107046780D01*
X145977714Y-107142019D02*
X145930095Y-107094400D01*
X145834857Y-107046780D01*
X145596761Y-107046780D01*
X145501523Y-107094400D01*
X145453904Y-107142019D01*
X145406285Y-107237257D01*
X145406285Y-107332495D01*
X145453904Y-107475352D01*
X146025333Y-108046780D01*
X145406285Y-108046780D01*
X145025333Y-107142019D02*
X144977714Y-107094400D01*
X144882476Y-107046780D01*
X144644380Y-107046780D01*
X144549142Y-107094400D01*
X144501523Y-107142019D01*
X144453904Y-107237257D01*
X144453904Y-107332495D01*
X144501523Y-107475352D01*
X145072952Y-108046780D01*
X144453904Y-108046780D01*
X143834857Y-107046780D02*
X143739619Y-107046780D01*
X143644380Y-107094400D01*
X143596761Y-107142019D01*
X143549142Y-107237257D01*
X143501523Y-107427733D01*
X143501523Y-107665828D01*
X143549142Y-107856304D01*
X143596761Y-107951542D01*
X143644380Y-107999161D01*
X143739619Y-108046780D01*
X143834857Y-108046780D01*
X143930095Y-107999161D01*
X143977714Y-107951542D01*
X144025333Y-107856304D01*
X144072952Y-107665828D01*
X144072952Y-107427733D01*
X144025333Y-107237257D01*
X143977714Y-107142019D01*
X143930095Y-107094400D01*
X143834857Y-107046780D01*
X142882476Y-107046780D02*
X142787238Y-107046780D01*
X142692000Y-107094400D01*
X142644380Y-107142019D01*
X142596761Y-107237257D01*
X142549142Y-107427733D01*
X142549142Y-107665828D01*
X142596761Y-107856304D01*
X142644380Y-107951542D01*
X142692000Y-107999161D01*
X142787238Y-108046780D01*
X142882476Y-108046780D01*
X142977714Y-107999161D01*
X143025333Y-107951542D01*
X143072952Y-107856304D01*
X143120571Y-107665828D01*
X143120571Y-107427733D01*
X143072952Y-107237257D01*
X143025333Y-107142019D01*
X142977714Y-107094400D01*
X142882476Y-107046780D01*
X141358666Y-108046780D02*
X141358666Y-107380114D01*
X141358666Y-107475352D02*
X141311047Y-107427733D01*
X141215809Y-107380114D01*
X141072952Y-107380114D01*
X140977714Y-107427733D01*
X140930095Y-107522971D01*
X140930095Y-108046780D01*
X140930095Y-107522971D02*
X140882476Y-107427733D01*
X140787238Y-107380114D01*
X140644380Y-107380114D01*
X140549142Y-107427733D01*
X140501523Y-107522971D01*
X140501523Y-108046780D01*
X140072952Y-107761066D02*
X139596761Y-107761066D01*
X140168190Y-108046780D02*
X139834857Y-107046780D01*
X139501523Y-108046780D01*
X139168190Y-108046780D02*
X139168190Y-107046780D01*
X139168190Y-107522971D02*
X138596761Y-107522971D01*
X138596761Y-108046780D02*
X138596761Y-107046780D01*
X136882476Y-108046780D02*
X137358666Y-108046780D01*
X137358666Y-107046780D01*
X136549142Y-108046780D02*
X136549142Y-107046780D01*
X136072952Y-107665828D02*
X135311047Y-107665828D01*
X134834857Y-108046780D02*
X134834857Y-107046780D01*
X134168190Y-107046780D02*
X133977714Y-107046780D01*
X133882476Y-107094400D01*
X133787238Y-107189638D01*
X133739619Y-107380114D01*
X133739619Y-107713447D01*
X133787238Y-107903923D01*
X133882476Y-107999161D01*
X133977714Y-108046780D01*
X134168190Y-108046780D01*
X134263428Y-107999161D01*
X134358666Y-107903923D01*
X134406285Y-107713447D01*
X134406285Y-107380114D01*
X134358666Y-107189638D01*
X134263428Y-107094400D01*
X134168190Y-107046780D01*
X133311047Y-108046780D02*
X133311047Y-107046780D01*
X132739619Y-108046780D01*
X132739619Y-107046780D01*
X130930095Y-107951542D02*
X130977714Y-107999161D01*
X131120571Y-108046780D01*
X131215809Y-108046780D01*
X131358666Y-107999161D01*
X131453904Y-107903923D01*
X131501523Y-107808685D01*
X131549142Y-107618209D01*
X131549142Y-107475352D01*
X131501523Y-107284876D01*
X131453904Y-107189638D01*
X131358666Y-107094400D01*
X131215809Y-107046780D01*
X131120571Y-107046780D01*
X130977714Y-107094400D01*
X130930095Y-107142019D01*
X130501523Y-107522971D02*
X130168190Y-107522971D01*
X130025333Y-108046780D02*
X130501523Y-108046780D01*
X130501523Y-107046780D01*
X130025333Y-107046780D01*
X129120571Y-108046780D02*
X129596761Y-108046780D01*
X129596761Y-107046780D01*
X128311047Y-108046780D02*
X128787238Y-108046780D01*
X128787238Y-107046780D01*
D10*
X161476819Y-85218590D02*
X161524438Y-85170971D01*
X161619676Y-85123352D01*
X161714914Y-85123352D01*
X161810152Y-85170971D01*
X161857771Y-85218590D01*
X161905390Y-85313828D01*
X161905390Y-85409066D01*
X161857771Y-85504304D01*
X161810152Y-85551923D01*
X161714914Y-85599542D01*
X161619676Y-85599542D01*
X161524438Y-85551923D01*
X161476819Y-85504304D01*
X161476819Y-85123352D02*
X161476819Y-85504304D01*
X161429200Y-85551923D01*
X161381580Y-85551923D01*
X161286342Y-85504304D01*
X161238723Y-85409066D01*
X161238723Y-85170971D01*
X161333961Y-85028114D01*
X161476819Y-84932876D01*
X161667295Y-84885257D01*
X161857771Y-84932876D01*
X162000628Y-85028114D01*
X162095866Y-85170971D01*
X162143485Y-85361447D01*
X162095866Y-85551923D01*
X162000628Y-85694780D01*
X161857771Y-85790019D01*
X161667295Y-85837638D01*
X161476819Y-85790019D01*
X161333961Y-85694780D01*
X160810152Y-85694780D02*
X160810152Y-84694780D01*
X160381580Y-85694780D02*
X160381580Y-85170971D01*
X160429200Y-85075733D01*
X160524438Y-85028114D01*
X160667295Y-85028114D01*
X160762533Y-85075733D01*
X160810152Y-85123352D01*
X159476819Y-85694780D02*
X159476819Y-85170971D01*
X159524438Y-85075733D01*
X159619676Y-85028114D01*
X159810152Y-85028114D01*
X159905390Y-85075733D01*
X159476819Y-85647161D02*
X159572057Y-85694780D01*
X159810152Y-85694780D01*
X159905390Y-85647161D01*
X159953009Y-85551923D01*
X159953009Y-85456685D01*
X159905390Y-85361447D01*
X159810152Y-85313828D01*
X159572057Y-85313828D01*
X159476819Y-85266209D01*
X159143485Y-85028114D02*
X158762533Y-85028114D01*
X159000628Y-84694780D02*
X159000628Y-85551923D01*
X158953009Y-85647161D01*
X158857771Y-85694780D01*
X158762533Y-85694780D01*
X158000628Y-85647161D02*
X158095866Y-85694780D01*
X158286342Y-85694780D01*
X158381580Y-85647161D01*
X158429200Y-85599542D01*
X158476819Y-85504304D01*
X158476819Y-85218590D01*
X158429200Y-85123352D01*
X158381580Y-85075733D01*
X158286342Y-85028114D01*
X158095866Y-85028114D01*
X158000628Y-85075733D01*
X157572057Y-85694780D02*
X157572057Y-84694780D01*
X157143485Y-85694780D02*
X157143485Y-85170971D01*
X157191104Y-85075733D01*
X157286342Y-85028114D01*
X157429200Y-85028114D01*
X157524438Y-85075733D01*
X157572057Y-85123352D01*
X156667295Y-85028114D02*
X156667295Y-85694780D01*
X156667295Y-85123352D02*
X156619676Y-85075733D01*
X156524438Y-85028114D01*
X156381580Y-85028114D01*
X156286342Y-85075733D01*
X156238723Y-85170971D01*
X156238723Y-85694780D01*
X155762533Y-85694780D02*
X155762533Y-84694780D01*
X155333961Y-85694780D02*
X155333961Y-85170971D01*
X155381580Y-85075733D01*
X155476819Y-85028114D01*
X155619676Y-85028114D01*
X155714914Y-85075733D01*
X155762533Y-85123352D01*
X154429200Y-85694780D02*
X154429200Y-85170971D01*
X154476819Y-85075733D01*
X154572057Y-85028114D01*
X154762533Y-85028114D01*
X154857771Y-85075733D01*
X154429200Y-85647161D02*
X154524438Y-85694780D01*
X154762533Y-85694780D01*
X154857771Y-85647161D01*
X154905390Y-85551923D01*
X154905390Y-85456685D01*
X154857771Y-85361447D01*
X154762533Y-85313828D01*
X154524438Y-85313828D01*
X154429200Y-85266209D01*
X153524438Y-85647161D02*
X153619676Y-85694780D01*
X153810152Y-85694780D01*
X153905390Y-85647161D01*
X153953009Y-85599542D01*
X154000628Y-85504304D01*
X154000628Y-85218590D01*
X153953009Y-85123352D01*
X153905390Y-85075733D01*
X153810152Y-85028114D01*
X153619676Y-85028114D01*
X153524438Y-85075733D01*
X153095866Y-85694780D02*
X153095866Y-84694780D01*
X153000628Y-85313828D02*
X152714914Y-85694780D01*
X152714914Y-85028114D02*
X153095866Y-85409066D01*
D11*
X112846857Y-84356380D02*
X112846857Y-83356380D01*
X112465904Y-83356380D01*
X112370666Y-83404000D01*
X112323047Y-83451619D01*
X112275428Y-83546857D01*
X112275428Y-83689714D01*
X112323047Y-83784952D01*
X112370666Y-83832571D01*
X112465904Y-83880190D01*
X112846857Y-83880190D01*
X111656380Y-83356380D02*
X111465904Y-83356380D01*
X111370666Y-83404000D01*
X111275428Y-83499238D01*
X111227809Y-83689714D01*
X111227809Y-84023047D01*
X111275428Y-84213523D01*
X111370666Y-84308761D01*
X111465904Y-84356380D01*
X111656380Y-84356380D01*
X111751619Y-84308761D01*
X111846857Y-84213523D01*
X111894476Y-84023047D01*
X111894476Y-83689714D01*
X111846857Y-83499238D01*
X111751619Y-83404000D01*
X111656380Y-83356380D01*
X110894476Y-83356380D02*
X110656380Y-84356380D01*
X110465904Y-83642095D01*
X110275428Y-84356380D01*
X110037333Y-83356380D01*
X109656380Y-83832571D02*
X109323047Y-83832571D01*
X109180190Y-84356380D02*
X109656380Y-84356380D01*
X109656380Y-83356380D01*
X109180190Y-83356380D01*
X108180190Y-84356380D02*
X108513523Y-83880190D01*
X108751619Y-84356380D02*
X108751619Y-83356380D01*
X108370666Y-83356380D01*
X108275428Y-83404000D01*
X108227809Y-83451619D01*
X108180190Y-83546857D01*
X108180190Y-83689714D01*
X108227809Y-83784952D01*
X108275428Y-83832571D01*
X108370666Y-83880190D01*
X108751619Y-83880190D01*
X106656380Y-83832571D02*
X106513523Y-83880190D01*
X106465904Y-83927809D01*
X106418285Y-84023047D01*
X106418285Y-84165904D01*
X106465904Y-84261142D01*
X106513523Y-84308761D01*
X106608761Y-84356380D01*
X106989714Y-84356380D01*
X106989714Y-83356380D01*
X106656380Y-83356380D01*
X106561142Y-83404000D01*
X106513523Y-83451619D01*
X106465904Y-83546857D01*
X106465904Y-83642095D01*
X106513523Y-83737333D01*
X106561142Y-83784952D01*
X106656380Y-83832571D01*
X106989714Y-83832571D01*
X106037333Y-84070666D02*
X105561142Y-84070666D01*
X106132571Y-84356380D02*
X105799238Y-83356380D01*
X105465904Y-84356380D01*
X105132571Y-84356380D02*
X105132571Y-83356380D01*
X104561142Y-84356380D01*
X104561142Y-83356380D01*
X104084952Y-84356380D02*
X104084952Y-83356380D01*
X103513523Y-84356380D02*
X103942095Y-83784952D01*
X103513523Y-83356380D02*
X104084952Y-83927809D01*
X110942095Y-85966380D02*
X110942095Y-84966380D01*
X110608761Y-85680666D01*
X110275428Y-84966380D01*
X110275428Y-85966380D01*
X109608761Y-84966380D02*
X109418285Y-84966380D01*
X109323047Y-85014000D01*
X109227809Y-85109238D01*
X109180190Y-85299714D01*
X109180190Y-85633047D01*
X109227809Y-85823523D01*
X109323047Y-85918761D01*
X109418285Y-85966380D01*
X109608761Y-85966380D01*
X109704000Y-85918761D01*
X109799238Y-85823523D01*
X109846857Y-85633047D01*
X109846857Y-85299714D01*
X109799238Y-85109238D01*
X109704000Y-85014000D01*
X109608761Y-84966380D01*
X108751619Y-85966380D02*
X108751619Y-84966380D01*
X108513523Y-84966380D01*
X108370666Y-85014000D01*
X108275428Y-85109238D01*
X108227809Y-85204476D01*
X108180190Y-85394952D01*
X108180190Y-85537809D01*
X108227809Y-85728285D01*
X108275428Y-85823523D01*
X108370666Y-85918761D01*
X108513523Y-85966380D01*
X108751619Y-85966380D01*
X107751619Y-84966380D02*
X107751619Y-85775904D01*
X107704000Y-85871142D01*
X107656380Y-85918761D01*
X107561142Y-85966380D01*
X107370666Y-85966380D01*
X107275428Y-85918761D01*
X107227809Y-85871142D01*
X107180190Y-85775904D01*
X107180190Y-84966380D01*
X106227809Y-85966380D02*
X106704000Y-85966380D01*
X106704000Y-84966380D01*
X105894476Y-85442571D02*
X105561142Y-85442571D01*
X105418285Y-85966380D02*
X105894476Y-85966380D01*
X105894476Y-84966380D01*
X105418285Y-84966380D01*
D10*
%TO.C,U1*%
X105943495Y-107303819D02*
X105943495Y-106494295D01*
X105991114Y-106399057D01*
X106038733Y-106351438D01*
X106133971Y-106303819D01*
X106324447Y-106303819D01*
X106419685Y-106351438D01*
X106467304Y-106399057D01*
X106514923Y-106494295D01*
X106514923Y-107303819D01*
X107514923Y-106303819D02*
X106943495Y-106303819D01*
X107229209Y-106303819D02*
X107229209Y-107303819D01*
X107133971Y-107160961D01*
X107038733Y-107065723D01*
X106943495Y-107018104D01*
%TO.C,C2*%
X116676466Y-73534542D02*
X116724085Y-73582161D01*
X116866942Y-73629780D01*
X116962180Y-73629780D01*
X117105038Y-73582161D01*
X117200276Y-73486923D01*
X117247895Y-73391685D01*
X117295514Y-73201209D01*
X117295514Y-73058352D01*
X117247895Y-72867876D01*
X117200276Y-72772638D01*
X117105038Y-72677400D01*
X116962180Y-72629780D01*
X116866942Y-72629780D01*
X116724085Y-72677400D01*
X116676466Y-72725019D01*
X116295514Y-72725019D02*
X116247895Y-72677400D01*
X116152657Y-72629780D01*
X115914561Y-72629780D01*
X115819323Y-72677400D01*
X115771704Y-72725019D01*
X115724085Y-72820257D01*
X115724085Y-72915495D01*
X115771704Y-73058352D01*
X116343133Y-73629780D01*
X115724085Y-73629780D01*
%TO.C,R4*%
X153836666Y-56028380D02*
X154170000Y-55552190D01*
X154408095Y-56028380D02*
X154408095Y-55028380D01*
X154027142Y-55028380D01*
X153931904Y-55076000D01*
X153884285Y-55123619D01*
X153836666Y-55218857D01*
X153836666Y-55361714D01*
X153884285Y-55456952D01*
X153931904Y-55504571D01*
X154027142Y-55552190D01*
X154408095Y-55552190D01*
X152979523Y-55361714D02*
X152979523Y-56028380D01*
X153217619Y-54980761D02*
X153455714Y-55695047D01*
X152836666Y-55695047D01*
%TO.C,R3*%
X125642666Y-64410380D02*
X125976000Y-63934190D01*
X126214095Y-64410380D02*
X126214095Y-63410380D01*
X125833142Y-63410380D01*
X125737904Y-63458000D01*
X125690285Y-63505619D01*
X125642666Y-63600857D01*
X125642666Y-63743714D01*
X125690285Y-63838952D01*
X125737904Y-63886571D01*
X125833142Y-63934190D01*
X126214095Y-63934190D01*
X125309333Y-63410380D02*
X124690285Y-63410380D01*
X125023619Y-63791333D01*
X124880761Y-63791333D01*
X124785523Y-63838952D01*
X124737904Y-63886571D01*
X124690285Y-63981809D01*
X124690285Y-64219904D01*
X124737904Y-64315142D01*
X124785523Y-64362761D01*
X124880761Y-64410380D01*
X125166476Y-64410380D01*
X125261714Y-64362761D01*
X125309333Y-64315142D01*
%TO.C,BT1*%
X155395514Y-107624571D02*
X155252657Y-107672190D01*
X155205038Y-107719809D01*
X155157419Y-107815047D01*
X155157419Y-107957904D01*
X155205038Y-108053142D01*
X155252657Y-108100761D01*
X155347895Y-108148380D01*
X155728847Y-108148380D01*
X155728847Y-107148380D01*
X155395514Y-107148380D01*
X155300276Y-107196000D01*
X155252657Y-107243619D01*
X155205038Y-107338857D01*
X155205038Y-107434095D01*
X155252657Y-107529333D01*
X155300276Y-107576952D01*
X155395514Y-107624571D01*
X155728847Y-107624571D01*
X154871704Y-107148380D02*
X154300276Y-107148380D01*
X154585990Y-108148380D02*
X154585990Y-107148380D01*
X153443133Y-108148380D02*
X154014561Y-108148380D01*
X153728847Y-108148380D02*
X153728847Y-107148380D01*
X153824085Y-107291238D01*
X153919323Y-107386476D01*
X154014561Y-107434095D01*
%TO.C,R2*%
X123356666Y-68778380D02*
X123690000Y-68302190D01*
X123928095Y-68778380D02*
X123928095Y-67778380D01*
X123547142Y-67778380D01*
X123451904Y-67826000D01*
X123404285Y-67873619D01*
X123356666Y-67968857D01*
X123356666Y-68111714D01*
X123404285Y-68206952D01*
X123451904Y-68254571D01*
X123547142Y-68302190D01*
X123928095Y-68302190D01*
X122975714Y-67873619D02*
X122928095Y-67826000D01*
X122832857Y-67778380D01*
X122594761Y-67778380D01*
X122499523Y-67826000D01*
X122451904Y-67873619D01*
X122404285Y-67968857D01*
X122404285Y-68064095D01*
X122451904Y-68206952D01*
X123023333Y-68778380D01*
X122404285Y-68778380D01*
%TO.C,U2*%
X119354504Y-82764380D02*
X119354504Y-83573904D01*
X119306885Y-83669142D01*
X119259266Y-83716761D01*
X119164028Y-83764380D01*
X118973552Y-83764380D01*
X118878314Y-83716761D01*
X118830695Y-83669142D01*
X118783076Y-83573904D01*
X118783076Y-82764380D01*
X118354504Y-82859619D02*
X118306885Y-82812000D01*
X118211647Y-82764380D01*
X117973552Y-82764380D01*
X117878314Y-82812000D01*
X117830695Y-82859619D01*
X117783076Y-82954857D01*
X117783076Y-83050095D01*
X117830695Y-83192952D01*
X118402123Y-83764380D01*
X117783076Y-83764380D01*
%TO.C,R6*%
X153836666Y-67966380D02*
X154170000Y-67490190D01*
X154408095Y-67966380D02*
X154408095Y-66966380D01*
X154027142Y-66966380D01*
X153931904Y-67014000D01*
X153884285Y-67061619D01*
X153836666Y-67156857D01*
X153836666Y-67299714D01*
X153884285Y-67394952D01*
X153931904Y-67442571D01*
X154027142Y-67490190D01*
X154408095Y-67490190D01*
X152979523Y-66966380D02*
X153170000Y-66966380D01*
X153265238Y-67014000D01*
X153312857Y-67061619D01*
X153408095Y-67204476D01*
X153455714Y-67394952D01*
X153455714Y-67775904D01*
X153408095Y-67871142D01*
X153360476Y-67918761D01*
X153265238Y-67966380D01*
X153074761Y-67966380D01*
X152979523Y-67918761D01*
X152931904Y-67871142D01*
X152884285Y-67775904D01*
X152884285Y-67537809D01*
X152931904Y-67442571D01*
X152979523Y-67394952D01*
X153074761Y-67347333D01*
X153265238Y-67347333D01*
X153360476Y-67394952D01*
X153408095Y-67442571D01*
X153455714Y-67537809D01*
%TO.C,U3*%
X140969904Y-71030380D02*
X140969904Y-71839904D01*
X140922285Y-71935142D01*
X140874666Y-71982761D01*
X140779428Y-72030380D01*
X140588952Y-72030380D01*
X140493714Y-71982761D01*
X140446095Y-71935142D01*
X140398476Y-71839904D01*
X140398476Y-71030380D01*
X140017523Y-71030380D02*
X139398476Y-71030380D01*
X139731809Y-71411333D01*
X139588952Y-71411333D01*
X139493714Y-71458952D01*
X139446095Y-71506571D01*
X139398476Y-71601809D01*
X139398476Y-71839904D01*
X139446095Y-71935142D01*
X139493714Y-71982761D01*
X139588952Y-72030380D01*
X139874666Y-72030380D01*
X139969904Y-71982761D01*
X140017523Y-71935142D01*
%TO.C,R5*%
X126150666Y-59838380D02*
X126484000Y-59362190D01*
X126722095Y-59838380D02*
X126722095Y-58838380D01*
X126341142Y-58838380D01*
X126245904Y-58886000D01*
X126198285Y-58933619D01*
X126150666Y-59028857D01*
X126150666Y-59171714D01*
X126198285Y-59266952D01*
X126245904Y-59314571D01*
X126341142Y-59362190D01*
X126722095Y-59362190D01*
X125245904Y-58838380D02*
X125722095Y-58838380D01*
X125769714Y-59314571D01*
X125722095Y-59266952D01*
X125626857Y-59219333D01*
X125388761Y-59219333D01*
X125293523Y-59266952D01*
X125245904Y-59314571D01*
X125198285Y-59409809D01*
X125198285Y-59647904D01*
X125245904Y-59743142D01*
X125293523Y-59790761D01*
X125388761Y-59838380D01*
X125626857Y-59838380D01*
X125722095Y-59790761D01*
X125769714Y-59743142D01*
%TO.C,C1*%
X127674666Y-86717142D02*
X127722285Y-86764761D01*
X127865142Y-86812380D01*
X127960380Y-86812380D01*
X128103238Y-86764761D01*
X128198476Y-86669523D01*
X128246095Y-86574285D01*
X128293714Y-86383809D01*
X128293714Y-86240952D01*
X128246095Y-86050476D01*
X128198476Y-85955238D01*
X128103238Y-85860000D01*
X127960380Y-85812380D01*
X127865142Y-85812380D01*
X127722285Y-85860000D01*
X127674666Y-85907619D01*
X126722285Y-86812380D02*
X127293714Y-86812380D01*
X127008000Y-86812380D02*
X127008000Y-85812380D01*
X127103238Y-85955238D01*
X127198476Y-86050476D01*
X127293714Y-86098095D01*
D12*
%TO.C,U1*%
X95910400Y-105486200D02*
X117500400Y-105486200D01*
X117500400Y-105486200D02*
X117500400Y-86436200D01*
X117500400Y-86436200D02*
X95910400Y-86436200D01*
X95910400Y-86436200D02*
X95910400Y-105486200D01*
%TO.C,C2*%
X119608548Y-72292800D02*
X121031052Y-72292800D01*
X119608548Y-74112800D02*
X121031052Y-74112800D01*
%TO.C,R4*%
X154580000Y-58150936D02*
X154580000Y-59605064D01*
X152760000Y-58150936D02*
X152760000Y-59605064D01*
%TO.C,R3*%
X128926000Y-64685064D02*
X128926000Y-63230936D01*
X127106000Y-64685064D02*
X127106000Y-63230936D01*
%TO.C,BT1*%
X101360000Y-108940000D02*
X178640000Y-108940000D01*
X182500000Y-114630000D02*
X182500000Y-112130000D01*
X183750000Y-113380000D02*
X181250000Y-113380000D01*
X96250000Y-113380000D02*
X98750000Y-113380000D01*
X178640000Y-115940000D02*
X183000000Y-115940000D01*
X101360000Y-122820000D02*
X101360000Y-129820000D01*
X101360000Y-129820000D02*
X178640000Y-129820000D01*
X101360000Y-115940000D02*
X101360000Y-108960000D01*
X178640000Y-129820000D02*
X178640000Y-122820000D01*
X178640000Y-108940000D02*
X178640000Y-115940000D01*
%TO.C,R2*%
X127727064Y-69186000D02*
X126272936Y-69186000D01*
X127727064Y-67366000D02*
X126272936Y-67366000D01*
%TO.C,U2*%
X120010000Y-75330000D02*
X120010000Y-76590000D01*
X120010000Y-82150000D02*
X120010000Y-80890000D01*
X123770000Y-82150000D02*
X120010000Y-82150000D01*
X126020000Y-75330000D02*
X120010000Y-75330000D01*
%TO.C,R6*%
X154580000Y-64939064D02*
X154580000Y-63484936D01*
X152760000Y-64939064D02*
X152760000Y-63484936D01*
%TO.C,U3*%
X146000000Y-69420000D02*
X148120000Y-69420000D01*
X148120000Y-45180000D02*
X131880000Y-45180000D01*
X131880000Y-69420000D02*
X134000000Y-69420000D01*
X131880000Y-45180000D02*
X131880000Y-52800000D01*
X131880000Y-68800000D02*
X131880000Y-69420000D01*
X148120000Y-52800000D02*
X148730000Y-52800000D01*
X148120000Y-69420000D02*
X148120000Y-68800000D01*
X148120000Y-52800000D02*
X148120000Y-45180000D01*
%TO.C,R5*%
X128926000Y-59351064D02*
X128926000Y-57896936D01*
X127106000Y-59351064D02*
X127106000Y-57896936D01*
%TO.C,C1*%
X127050748Y-84984000D02*
X128473252Y-84984000D01*
X127050748Y-83164000D02*
X128473252Y-83164000D01*
%TD*%
M02*
