M48
; DRILL file {KiCad 6.0.7-f9a2dced07~116~ubuntu20.04.1} date Fri 09 Sep 2022 07:22:26 PM IST
; FORMAT={-:-/ absolute / metric / decimal}
; #@! TF.CreationDate,2022-09-09T19:22:26+05:30
; #@! TF.GenerationSoftware,Kicad,Pcbnew,6.0.7-f9a2dced07~116~ubuntu20.04.1
; #@! TF.FileFunction,Plated,1,2,PTH
FMAT,2
METRIC
; #@! TA.AperFunction,Plated,PTH,ViaDrill
T1C0.400
; #@! TA.AperFunction,Plated,PTH,ComponentDrill
T2C0.900
; #@! TA.AperFunction,Plated,PTH,ComponentDrill
T3C0.950
; #@! TA.AperFunction,Plated,PTH,ComponentDrill
T4C1.000
; #@! TA.AperFunction,Plated,PTH,ComponentDrill
T5C1.500
%
G90
G05
T1
X97.968Y-95.072
X123.012Y-81.001
X124.206Y-56.134
X136.029Y-66.854
X137.414Y-66.802
X143.51Y-67.31
X145.288Y-67.564
X150.309Y-59.8
X150.368Y-61.722
X152.4Y-69.85
X152.4Y-71.12
X154.053Y-55.774
X155.956Y-68.326
X155.984Y-65.758
X156.464Y-52.324
X157.031Y-61.4
T2
X103.856Y-67.756
X104.856Y-66.024
X105.856Y-64.292
T3
X135.95Y-99.585
X138.45Y-99.585
X140.95Y-99.585
X143.45Y-99.585
T4
X92.888Y-86.73
X92.888Y-89.23
X116.205Y-90.346
X116.205Y-103.846
X164.49Y-54.762
X166.69Y-56.032
X170.805Y-59.01
X172.601Y-60.806
X174.397Y-62.602
X176.193Y-64.398
X177.989Y-66.194
X179.785Y-67.99
X182.875Y-72.282
X184.145Y-74.482
X185.415Y-76.682
X186.685Y-78.881
T5
X102.806Y-69.575
X106.906Y-62.473
X121.92Y-84.836
X127.508Y-72.39
X157.48Y-91.44
T0
M30
