%TF.GenerationSoftware,KiCad,Pcbnew,6.0.7-f9a2dced07~116~ubuntu20.04.1*%
%TF.CreationDate,2022-09-09T19:22:18+05:30*%
%TF.ProjectId,ESP12E_Smart_Coaster,45535031-3245-45f5-936d-6172745f436f,rev?*%
%TF.SameCoordinates,Original*%
%TF.FileFunction,Soldermask,Top*%
%TF.FilePolarity,Negative*%
%FSLAX46Y46*%
G04 Gerber Fmt 4.6, Leading zero omitted, Abs format (unit mm)*
G04 Created by KiCad (PCBNEW 6.0.7-f9a2dced07~116~ubuntu20.04.1) date 2022-09-09 19:22:18*
%MOMM*%
%LPD*%
G01*
G04 APERTURE LIST*
G04 Aperture macros list*
%AMRoundRect*
0 Rectangle with rounded corners*
0 $1 Rounding radius*
0 $2 $3 $4 $5 $6 $7 $8 $9 X,Y pos of 4 corners*
0 Add a 4 corners polygon primitive as box body*
4,1,4,$2,$3,$4,$5,$6,$7,$8,$9,$2,$3,0*
0 Add four circle primitives for the rounded corners*
1,1,$1+$1,$2,$3*
1,1,$1+$1,$4,$5*
1,1,$1+$1,$6,$7*
1,1,$1+$1,$8,$9*
0 Add four rect primitives between the rounded corners*
20,1,$1+$1,$2,$3,$4,$5,0*
20,1,$1+$1,$4,$5,$6,$7,0*
20,1,$1+$1,$6,$7,$8,$9,0*
20,1,$1+$1,$8,$9,$2,$3,0*%
%AMHorizOval*
0 Thick line with rounded ends*
0 $1 width*
0 $2 $3 position (X,Y) of the first rounded end (center of the circle)*
0 $4 $5 position (X,Y) of the second rounded end (center of the circle)*
0 Add line between two ends*
20,1,$1,$2,$3,$4,$5,0*
0 Add two circle primitives to create the rounded ends*
1,1,$1,$2,$3*
1,1,$1,$4,$5*%
%AMRotRect*
0 Rectangle, with rotation*
0 The origin of the aperture is its center*
0 $1 length*
0 $2 width*
0 $3 Rotation angle, in degrees counterclockwise*
0 Add horizontal line*
21,1,$1,$2,0,0,$3*%
G04 Aperture macros list end*
%ADD10C,0.150000*%
%ADD11RoundRect,0.250000X-0.650000X0.412500X-0.650000X-0.412500X0.650000X-0.412500X0.650000X0.412500X0*%
%ADD12RoundRect,0.250000X-0.412500X-0.650000X0.412500X-0.650000X0.412500X0.650000X-0.412500X0.650000X0*%
%ADD13RoundRect,0.250000X0.032235X0.769167X-0.682235X0.356667X-0.032235X-0.769167X0.682235X-0.356667X0*%
%ADD14R,1.000000X1.500000*%
%ADD15RotRect,1.700000X1.700000X210.000000*%
%ADD16HorizOval,1.700000X0.000000X0.000000X0.000000X0.000000X0*%
%ADD17RotRect,1.500000X1.000000X240.000000*%
%ADD18RoundRect,0.150000X-0.150000X0.587500X-0.150000X-0.587500X0.150000X-0.587500X0.150000X0.587500X0*%
%ADD19RotRect,1.500000X1.000000X330.000000*%
%ADD20RoundRect,0.250000X0.750000X-0.600000X0.750000X0.600000X-0.750000X0.600000X-0.750000X-0.600000X0*%
%ADD21O,2.000000X1.700000*%
%ADD22RoundRect,0.250000X0.356667X-0.682235X0.769167X0.032235X-0.356667X0.682235X-0.769167X-0.032235X0*%
%ADD23RoundRect,0.250000X-0.032235X-0.769167X0.682235X-0.356667X0.032235X0.769167X-0.682235X0.356667X0*%
%ADD24C,3.200000*%
%ADD25R,1.500000X1.000000*%
%ADD26RotRect,1.700000X1.700000X45.000000*%
%ADD27HorizOval,1.700000X0.000000X0.000000X0.000000X0.000000X0*%
%ADD28RoundRect,0.250000X-0.682235X-0.356667X0.032235X-0.769167X0.682235X0.356667X-0.032235X0.769167X0*%
%ADD29RoundRect,0.200000X-0.573205X-0.592820X-0.226795X-0.792820X0.573205X0.592820X0.226795X0.792820X0*%
%ADD30RoundRect,0.250000X-0.769167X0.032235X-0.356667X-0.682235X0.769167X-0.032235X0.356667X0.682235X0*%
%ADD31RoundRect,0.250000X0.769167X-0.032235X0.356667X0.682235X-0.769167X0.032235X-0.356667X-0.682235X0*%
%ADD32C,3.000000*%
%ADD33RoundRect,0.250000X0.650000X-0.412500X0.650000X0.412500X-0.650000X0.412500X-0.650000X-0.412500X0*%
%ADD34RotRect,1.700000X1.700000X240.000000*%
%ADD35HorizOval,1.700000X0.000000X0.000000X0.000000X0.000000X0*%
%ADD36HorizOval,2.200000X-0.562917X0.325000X0.562917X-0.325000X0*%
%ADD37RotRect,1.500000X2.500000X60.000000*%
%ADD38HorizOval,1.500000X-0.433013X0.250000X0.433013X-0.250000X0*%
%ADD39RotRect,1.500000X1.000000X150.000000*%
%ADD40RotRect,1.500000X1.000000X120.000000*%
%ADD41RotRect,1.500000X1.000000X210.000000*%
%ADD42RoundRect,0.250000X0.682235X0.356667X-0.032235X0.769167X-0.682235X-0.356667X0.032235X-0.769167X0*%
%ADD43RotRect,1.500000X1.000000X60.000000*%
%ADD44RoundRect,0.250000X-0.625000X0.400000X-0.625000X-0.400000X0.625000X-0.400000X0.625000X0.400000X0*%
%ADD45RoundRect,0.250000X-0.356667X0.682235X-0.769167X-0.032235X0.356667X-0.682235X0.769167X0.032235X0*%
%ADD46RoundRect,0.250000X0.600000X0.725000X-0.600000X0.725000X-0.600000X-0.725000X0.600000X-0.725000X0*%
%ADD47O,1.700000X1.950000*%
%ADD48RotRect,1.500000X1.000000X30.000000*%
%ADD49RoundRect,0.250000X0.412500X0.650000X-0.412500X0.650000X-0.412500X-0.650000X0.412500X-0.650000X0*%
%ADD50RotRect,1.500000X1.000000X300.000000*%
%ADD51R,1.700000X1.700000*%
%ADD52C,3.450000*%
%ADD53C,2.390000*%
G04 APERTURE END LIST*
D10*
G36*
X128485197Y-117325306D02*
G01*
X128586240Y-117386144D01*
X128633852Y-117515755D01*
X128617453Y-117575535D01*
X128509003Y-117705146D01*
X128365108Y-117781325D01*
X128191588Y-117798783D01*
X128024945Y-117777093D01*
X127888986Y-117699855D01*
X127837203Y-117566204D01*
X127837670Y-117564954D01*
X127853541Y-117498297D01*
X127977862Y-117371331D01*
X128151911Y-117301500D01*
X128321199Y-117287745D01*
X128485197Y-117325306D01*
G37*
X128485197Y-117325306D02*
X128586240Y-117386144D01*
X128633852Y-117515755D01*
X128617453Y-117575535D01*
X128509003Y-117705146D01*
X128365108Y-117781325D01*
X128191588Y-117798783D01*
X128024945Y-117777093D01*
X127888986Y-117699855D01*
X127837203Y-117566204D01*
X127837670Y-117564954D01*
X127853541Y-117498297D01*
X127977862Y-117371331D01*
X128151911Y-117301500D01*
X128321199Y-117287745D01*
X128485197Y-117325306D01*
G36*
X129165749Y-129037213D02*
G01*
X129344777Y-129101716D01*
X129460618Y-129167535D01*
X129615951Y-129283377D01*
X129789714Y-129488732D01*
X129862115Y-129709885D01*
X129900290Y-129920506D01*
X129892392Y-130115330D01*
X129839736Y-130320686D01*
X129739691Y-130506296D01*
X129625166Y-130647149D01*
X129436923Y-130803798D01*
X129257895Y-130868301D01*
X129128890Y-130899894D01*
X128953811Y-130928855D01*
X128768201Y-130918324D01*
X128623399Y-130873567D01*
X128452269Y-130784053D01*
X128404879Y-130752459D01*
X128360122Y-130735346D01*
X128236383Y-130607657D01*
X128145552Y-130449691D01*
X128070518Y-130268031D01*
X128031027Y-130137709D01*
X127993241Y-129924367D01*
X128012598Y-129749376D01*
X128079733Y-129571664D01*
X128183727Y-129393953D01*
X128308784Y-129259682D01*
X128464117Y-129159637D01*
X128658941Y-129084603D01*
X128795845Y-129050377D01*
X128972240Y-129021417D01*
X129165749Y-129037213D01*
G37*
X129165749Y-129037213D02*
X129344777Y-129101716D01*
X129460618Y-129167535D01*
X129615951Y-129283377D01*
X129789714Y-129488732D01*
X129862115Y-129709885D01*
X129900290Y-129920506D01*
X129892392Y-130115330D01*
X129839736Y-130320686D01*
X129739691Y-130506296D01*
X129625166Y-130647149D01*
X129436923Y-130803798D01*
X129257895Y-130868301D01*
X129128890Y-130899894D01*
X128953811Y-130928855D01*
X128768201Y-130918324D01*
X128623399Y-130873567D01*
X128452269Y-130784053D01*
X128404879Y-130752459D01*
X128360122Y-130735346D01*
X128236383Y-130607657D01*
X128145552Y-130449691D01*
X128070518Y-130268031D01*
X128031027Y-130137709D01*
X127993241Y-129924367D01*
X128012598Y-129749376D01*
X128079733Y-129571664D01*
X128183727Y-129393953D01*
X128308784Y-129259682D01*
X128464117Y-129159637D01*
X128658941Y-129084603D01*
X128795845Y-129050377D01*
X128972240Y-129021417D01*
X129165749Y-129037213D01*
G36*
X164181927Y-75447131D02*
G01*
X164370273Y-75515372D01*
X164544971Y-75630018D01*
X164686913Y-75774689D01*
X164798828Y-75943928D01*
X164872529Y-76104977D01*
X164902555Y-76312430D01*
X164897096Y-76541721D01*
X164842503Y-76746445D01*
X164755154Y-76912954D01*
X164605023Y-77112218D01*
X164487648Y-77265078D01*
X164389381Y-77434317D01*
X164332058Y-77570799D01*
X164282924Y-77715471D01*
X164072741Y-77759145D01*
X163837991Y-77879250D01*
X163636465Y-77581459D01*
X163497904Y-77434747D01*
X163302287Y-77312486D01*
X163049616Y-77084267D01*
X162939936Y-76839253D01*
X162926288Y-76670015D01*
X162929018Y-76377942D01*
X162942666Y-76203244D01*
X162989070Y-76009439D01*
X163081878Y-75832012D01*
X163207442Y-75690070D01*
X163275683Y-75627288D01*
X163403977Y-75534480D01*
X163605971Y-75444401D01*
X163786128Y-75411646D01*
X163977203Y-75403457D01*
X164181927Y-75447131D01*
G37*
X164181927Y-75447131D02*
X164370273Y-75515372D01*
X164544971Y-75630018D01*
X164686913Y-75774689D01*
X164798828Y-75943928D01*
X164872529Y-76104977D01*
X164902555Y-76312430D01*
X164897096Y-76541721D01*
X164842503Y-76746445D01*
X164755154Y-76912954D01*
X164605023Y-77112218D01*
X164487648Y-77265078D01*
X164389381Y-77434317D01*
X164332058Y-77570799D01*
X164282924Y-77715471D01*
X164072741Y-77759145D01*
X163837991Y-77879250D01*
X163636465Y-77581459D01*
X163497904Y-77434747D01*
X163302287Y-77312486D01*
X163049616Y-77084267D01*
X162939936Y-76839253D01*
X162926288Y-76670015D01*
X162929018Y-76377942D01*
X162942666Y-76203244D01*
X162989070Y-76009439D01*
X163081878Y-75832012D01*
X163207442Y-75690070D01*
X163275683Y-75627288D01*
X163403977Y-75534480D01*
X163605971Y-75444401D01*
X163786128Y-75411646D01*
X163977203Y-75403457D01*
X164181927Y-75447131D01*
G36*
X137275528Y-109427722D02*
G01*
X137454556Y-109492225D01*
X137570397Y-109558044D01*
X137725730Y-109673886D01*
X137899493Y-109879241D01*
X137971894Y-110100394D01*
X138010069Y-110311015D01*
X138002171Y-110505839D01*
X137949515Y-110711195D01*
X137849470Y-110896805D01*
X137734945Y-111037658D01*
X137546702Y-111194307D01*
X137367674Y-111258810D01*
X137238669Y-111290403D01*
X137063590Y-111319364D01*
X136877980Y-111308833D01*
X136733178Y-111264076D01*
X136562048Y-111174562D01*
X136514658Y-111142968D01*
X136469901Y-111125855D01*
X136346162Y-110998166D01*
X136255331Y-110840200D01*
X136180297Y-110658540D01*
X136140806Y-110528218D01*
X136103020Y-110314876D01*
X136122377Y-110139885D01*
X136189512Y-109962173D01*
X136293506Y-109784462D01*
X136418563Y-109650191D01*
X136573896Y-109550146D01*
X136768720Y-109475112D01*
X136905624Y-109440886D01*
X137082019Y-109411926D01*
X137275528Y-109427722D01*
G37*
X137275528Y-109427722D02*
X137454556Y-109492225D01*
X137570397Y-109558044D01*
X137725730Y-109673886D01*
X137899493Y-109879241D01*
X137971894Y-110100394D01*
X138010069Y-110311015D01*
X138002171Y-110505839D01*
X137949515Y-110711195D01*
X137849470Y-110896805D01*
X137734945Y-111037658D01*
X137546702Y-111194307D01*
X137367674Y-111258810D01*
X137238669Y-111290403D01*
X137063590Y-111319364D01*
X136877980Y-111308833D01*
X136733178Y-111264076D01*
X136562048Y-111174562D01*
X136514658Y-111142968D01*
X136469901Y-111125855D01*
X136346162Y-110998166D01*
X136255331Y-110840200D01*
X136180297Y-110658540D01*
X136140806Y-110528218D01*
X136103020Y-110314876D01*
X136122377Y-110139885D01*
X136189512Y-109962173D01*
X136293506Y-109784462D01*
X136418563Y-109650191D01*
X136573896Y-109550146D01*
X136768720Y-109475112D01*
X136905624Y-109440886D01*
X137082019Y-109411926D01*
X137275528Y-109427722D01*
G36*
X125909437Y-117290649D02*
G01*
X126087152Y-117355928D01*
X126215983Y-117448164D01*
X126262887Y-117549747D01*
X126228957Y-117683663D01*
X126099069Y-117771420D01*
X126055273Y-117781200D01*
X125871797Y-117792893D01*
X125686619Y-117753349D01*
X125542474Y-117660866D01*
X125483371Y-117519698D01*
X125485845Y-117510635D01*
X125505864Y-117397736D01*
X125662765Y-117314609D01*
X125829233Y-117280592D01*
X125909437Y-117290649D01*
G37*
X125909437Y-117290649D02*
X126087152Y-117355928D01*
X126215983Y-117448164D01*
X126262887Y-117549747D01*
X126228957Y-117683663D01*
X126099069Y-117771420D01*
X126055273Y-117781200D01*
X125871797Y-117792893D01*
X125686619Y-117753349D01*
X125542474Y-117660866D01*
X125483371Y-117519698D01*
X125485845Y-117510635D01*
X125505864Y-117397736D01*
X125662765Y-117314609D01*
X125829233Y-117280592D01*
X125909437Y-117290649D01*
G36*
X119180908Y-105564246D02*
G01*
X119359936Y-105628749D01*
X119475777Y-105694568D01*
X119631110Y-105810410D01*
X119804873Y-106015765D01*
X119877274Y-106236918D01*
X119915449Y-106447539D01*
X119907551Y-106642363D01*
X119854895Y-106847719D01*
X119754850Y-107033329D01*
X119640325Y-107174182D01*
X119452082Y-107330831D01*
X119273054Y-107395334D01*
X119144049Y-107426927D01*
X118968970Y-107455888D01*
X118783360Y-107445357D01*
X118638558Y-107400600D01*
X118467428Y-107311086D01*
X118420038Y-107279492D01*
X118375281Y-107262379D01*
X118251542Y-107134690D01*
X118160711Y-106976724D01*
X118085677Y-106795064D01*
X118046186Y-106664742D01*
X118008400Y-106451400D01*
X118027757Y-106276409D01*
X118094892Y-106098697D01*
X118198886Y-105920986D01*
X118323943Y-105786715D01*
X118479276Y-105686670D01*
X118674100Y-105611636D01*
X118811004Y-105577410D01*
X118987399Y-105548450D01*
X119180908Y-105564246D01*
G37*
X119180908Y-105564246D02*
X119359936Y-105628749D01*
X119475777Y-105694568D01*
X119631110Y-105810410D01*
X119804873Y-106015765D01*
X119877274Y-106236918D01*
X119915449Y-106447539D01*
X119907551Y-106642363D01*
X119854895Y-106847719D01*
X119754850Y-107033329D01*
X119640325Y-107174182D01*
X119452082Y-107330831D01*
X119273054Y-107395334D01*
X119144049Y-107426927D01*
X118968970Y-107455888D01*
X118783360Y-107445357D01*
X118638558Y-107400600D01*
X118467428Y-107311086D01*
X118420038Y-107279492D01*
X118375281Y-107262379D01*
X118251542Y-107134690D01*
X118160711Y-106976724D01*
X118085677Y-106795064D01*
X118046186Y-106664742D01*
X118008400Y-106451400D01*
X118027757Y-106276409D01*
X118094892Y-106098697D01*
X118198886Y-105920986D01*
X118323943Y-105786715D01*
X118479276Y-105686670D01*
X118674100Y-105611636D01*
X118811004Y-105577410D01*
X118987399Y-105548450D01*
X119180908Y-105564246D01*
D11*
%TO.C,C12*%
X100076000Y-98462700D03*
X100076000Y-101587700D03*
%TD*%
D12*
%TO.C,C9*%
X138391500Y-139954000D03*
X141516500Y-139954000D03*
%TD*%
D13*
%TO.C,C14*%
X121495165Y-64242750D03*
X118788835Y-65805250D03*
%TD*%
D14*
%TO.C,D4*%
X183439000Y-102399000D03*
X186639000Y-102399000D03*
X186639000Y-97499000D03*
X183439000Y-97499000D03*
%TD*%
D15*
%TO.C,J1*%
X186685000Y-78881297D03*
D16*
X185415000Y-76681592D03*
X184145000Y-74481888D03*
X182875000Y-72282183D03*
%TD*%
D17*
%TO.C,D11*%
X103601041Y-76122838D03*
X100829759Y-74522838D03*
X98379759Y-78766362D03*
X101151041Y-80366362D03*
%TD*%
D12*
%TO.C,C3*%
X137547999Y-56895999D03*
X140672999Y-56895999D03*
%TD*%
D18*
%TO.C,Q1*%
X141346000Y-65814500D03*
X139446000Y-65814500D03*
X140396000Y-67689500D03*
%TD*%
D19*
%TO.C,D8*%
X116178638Y-136428959D03*
X114578638Y-139200241D03*
X118822162Y-141650241D03*
X120422162Y-138878959D03*
%TD*%
D20*
%TO.C,J4*%
X92887800Y-89230200D03*
D21*
X92887800Y-86730200D03*
%TD*%
D22*
%TO.C,C7*%
X173970750Y-121241165D03*
X175533250Y-118534835D03*
%TD*%
D23*
%TO.C,C8*%
X159174835Y-135655250D03*
X161881165Y-134092750D03*
%TD*%
D24*
%TO.C,H1*%
X91668600Y-111607600D03*
%TD*%
D25*
%TO.C,D7*%
X137529400Y-143459400D03*
X137529400Y-146659400D03*
X142429400Y-146659400D03*
X142429400Y-143459400D03*
%TD*%
D26*
%TO.C,J3*%
X170805227Y-59009872D03*
D27*
X172601278Y-60805923D03*
X174397329Y-62601974D03*
X176193381Y-64398026D03*
X177989432Y-66194077D03*
X179785483Y-67990128D03*
%TD*%
D28*
%TO.C,C10*%
X118534835Y-134092750D03*
X121241165Y-135655250D03*
%TD*%
D29*
%TO.C,SW2*%
X155407347Y-51274000D03*
X159044653Y-53374000D03*
%TD*%
D30*
%TO.C,C11*%
X104628750Y-118788835D03*
X106191250Y-121495165D03*
%TD*%
D31*
%TO.C,C5*%
X175279250Y-81109165D03*
X173716750Y-78402835D03*
%TD*%
D32*
%TO.C,TP1*%
X157480000Y-91440000D03*
%TD*%
D33*
%TO.C,C6*%
X180086000Y-101638500D03*
X180086000Y-98513500D03*
%TD*%
D34*
%TO.C,JP1*%
X166690105Y-56032400D03*
D35*
X164490400Y-54762400D03*
%TD*%
D36*
%TO.C,SW1*%
X106906051Y-62473296D03*
X102806051Y-69574704D03*
D37*
X103856051Y-67756051D03*
D38*
X104856051Y-66024000D03*
X105856051Y-64291949D03*
%TD*%
D14*
%TO.C,D10*%
X96545200Y-97575200D03*
X93345200Y-97575200D03*
X93345200Y-102475200D03*
X96545200Y-102475200D03*
%TD*%
D39*
%TO.C,D2*%
X163805562Y-63596041D03*
X165405562Y-60824759D03*
X161162038Y-58374759D03*
X159562038Y-61146041D03*
%TD*%
D25*
%TO.C,D1*%
X137550000Y-59700000D03*
X137550000Y-62900000D03*
X142450000Y-62900000D03*
X142450000Y-59700000D03*
%TD*%
D40*
%TO.C,D3*%
X178731559Y-80213962D03*
X181502841Y-78613962D03*
X179052841Y-74370438D03*
X176281559Y-75970438D03*
%TD*%
D41*
%TO.C,D12*%
X120422162Y-61120641D03*
X118822162Y-58349359D03*
X114578638Y-60799359D03*
X116178638Y-63570641D03*
%TD*%
D42*
%TO.C,C4*%
X161373165Y-65805250D03*
X158666835Y-64242750D03*
%TD*%
D43*
%TO.C,D5*%
X176433959Y-123825962D03*
X179205241Y-125425962D03*
X181655241Y-121182438D03*
X178883959Y-119582438D03*
%TD*%
D44*
%TO.C,R1*%
X150868528Y-63750495D03*
X150868528Y-66850495D03*
%TD*%
D45*
%TO.C,C13*%
X105937250Y-78402835D03*
X104374750Y-81109165D03*
%TD*%
D32*
%TO.C,TP2*%
X121920000Y-84836000D03*
%TD*%
D24*
%TO.C,H2*%
X186944000Y-88900000D03*
%TD*%
D46*
%TO.C,J2*%
X143450000Y-99585000D03*
D47*
X140950000Y-99585000D03*
X138450000Y-99585000D03*
X135950000Y-99585000D03*
%TD*%
D48*
%TO.C,D6*%
X159587438Y-138853559D03*
X161187438Y-141624841D03*
X165430962Y-139174841D03*
X163830962Y-136403559D03*
%TD*%
D32*
%TO.C,TP3*%
X127508000Y-72390000D03*
%TD*%
D49*
%TO.C,C15*%
X133642500Y-66040000D03*
X130517500Y-66040000D03*
%TD*%
D50*
%TO.C,D9*%
X101125641Y-119582438D03*
X98354359Y-121182438D03*
X100804359Y-125425962D03*
X103575641Y-123825962D03*
%TD*%
D51*
%TO.C,U1*%
X116205400Y-103846200D03*
X116205400Y-90346200D03*
%TD*%
D52*
%TO.C,BT1*%
X112400000Y-111380000D03*
D53*
X175930000Y-111380000D03*
D52*
X167600000Y-127380000D03*
%TD*%
M02*
