%TF.GenerationSoftware,KiCad,Pcbnew,6.0.7-f9a2dced07~116~ubuntu20.04.1*%
%TF.CreationDate,2022-09-09T19:22:19+05:30*%
%TF.ProjectId,ESP12E_Smart_Coaster,45535031-3245-45f5-936d-6172745f436f,rev?*%
%TF.SameCoordinates,Original*%
%TF.FileFunction,Soldermask,Bot*%
%TF.FilePolarity,Negative*%
%FSLAX46Y46*%
G04 Gerber Fmt 4.6, Leading zero omitted, Abs format (unit mm)*
G04 Created by KiCad (PCBNEW 6.0.7-f9a2dced07~116~ubuntu20.04.1) date 2022-09-09 19:22:19*
%MOMM*%
%LPD*%
G01*
G04 APERTURE LIST*
G04 Aperture macros list*
%AMRoundRect*
0 Rectangle with rounded corners*
0 $1 Rounding radius*
0 $2 $3 $4 $5 $6 $7 $8 $9 X,Y pos of 4 corners*
0 Add a 4 corners polygon primitive as box body*
4,1,4,$2,$3,$4,$5,$6,$7,$8,$9,$2,$3,0*
0 Add four circle primitives for the rounded corners*
1,1,$1+$1,$2,$3*
1,1,$1+$1,$4,$5*
1,1,$1+$1,$6,$7*
1,1,$1+$1,$8,$9*
0 Add four rect primitives between the rounded corners*
20,1,$1+$1,$2,$3,$4,$5,0*
20,1,$1+$1,$4,$5,$6,$7,0*
20,1,$1+$1,$6,$7,$8,$9,0*
20,1,$1+$1,$8,$9,$2,$3,0*%
%AMHorizOval*
0 Thick line with rounded ends*
0 $1 width*
0 $2 $3 position (X,Y) of the first rounded end (center of the circle)*
0 $4 $5 position (X,Y) of the second rounded end (center of the circle)*
0 Add line between two ends*
20,1,$1,$2,$3,$4,$5,0*
0 Add two circle primitives to create the rounded ends*
1,1,$1,$2,$3*
1,1,$1,$4,$5*%
%AMRotRect*
0 Rectangle, with rotation*
0 The origin of the aperture is its center*
0 $1 length*
0 $2 width*
0 $3 Rotation angle, in degrees counterclockwise*
0 Add horizontal line*
21,1,$1,$2,0,0,$3*%
G04 Aperture macros list end*
%ADD10RotRect,1.700000X1.700000X210.000000*%
%ADD11HorizOval,1.700000X0.000000X0.000000X0.000000X0.000000X0*%
%ADD12RoundRect,0.250000X0.750000X-0.600000X0.750000X0.600000X-0.750000X0.600000X-0.750000X-0.600000X0*%
%ADD13O,2.000000X1.700000*%
%ADD14C,3.200000*%
%ADD15RotRect,1.700000X1.700000X45.000000*%
%ADD16HorizOval,1.700000X0.000000X0.000000X0.000000X0.000000X0*%
%ADD17C,3.000000*%
%ADD18RotRect,1.700000X1.700000X240.000000*%
%ADD19HorizOval,1.700000X0.000000X0.000000X0.000000X0.000000X0*%
%ADD20HorizOval,2.200000X-0.562917X0.325000X0.562917X-0.325000X0*%
%ADD21RotRect,1.500000X2.500000X60.000000*%
%ADD22HorizOval,1.500000X-0.433013X0.250000X0.433013X-0.250000X0*%
%ADD23RoundRect,0.250000X0.600000X0.725000X-0.600000X0.725000X-0.600000X-0.725000X0.600000X-0.725000X0*%
%ADD24O,1.700000X1.950000*%
%ADD25R,1.700000X1.700000*%
%ADD26RoundRect,0.250000X-0.412500X-0.650000X0.412500X-0.650000X0.412500X0.650000X-0.412500X0.650000X0*%
%ADD27RoundRect,0.250000X-0.625000X0.400000X-0.625000X-0.400000X0.625000X-0.400000X0.625000X0.400000X0*%
%ADD28RoundRect,0.250000X0.625000X-0.400000X0.625000X0.400000X-0.625000X0.400000X-0.625000X-0.400000X0*%
%ADD29C,3.450000*%
%ADD30C,2.390000*%
%ADD31R,7.340000X6.350000*%
%ADD32RoundRect,0.250000X0.400000X0.625000X-0.400000X0.625000X-0.400000X-0.625000X0.400000X-0.625000X0*%
%ADD33R,2.000000X1.500000*%
%ADD34R,2.000000X3.800000*%
%ADD35R,2.500000X1.000000*%
%ADD36R,1.000000X1.800000*%
G04 APERTURE END LIST*
D10*
%TO.C,J1*%
X186685000Y-78881297D03*
D11*
X185415000Y-76681592D03*
X184145000Y-74481888D03*
X182875000Y-72282183D03*
%TD*%
D12*
%TO.C,J4*%
X92887800Y-89230200D03*
D13*
X92887800Y-86730200D03*
%TD*%
D14*
%TO.C,H1*%
X91668600Y-111607600D03*
%TD*%
D15*
%TO.C,J3*%
X170805227Y-59009872D03*
D16*
X172601278Y-60805923D03*
X174397329Y-62601974D03*
X176193381Y-64398026D03*
X177989432Y-66194077D03*
X179785483Y-67990128D03*
%TD*%
D17*
%TO.C,TP1*%
X157480000Y-91440000D03*
%TD*%
D18*
%TO.C,JP1*%
X166690105Y-56032400D03*
D19*
X164490400Y-54762400D03*
%TD*%
D20*
%TO.C,SW1*%
X106906051Y-62473296D03*
X102806051Y-69574704D03*
D21*
X103856051Y-67756051D03*
D22*
X104856051Y-66024000D03*
X105856051Y-64291949D03*
%TD*%
D17*
%TO.C,TP2*%
X121920000Y-84836000D03*
%TD*%
D14*
%TO.C,H2*%
X186944000Y-88900000D03*
%TD*%
D23*
%TO.C,J2*%
X143450000Y-99585000D03*
D24*
X140950000Y-99585000D03*
X138450000Y-99585000D03*
X135950000Y-99585000D03*
%TD*%
D17*
%TO.C,TP3*%
X127508000Y-72390000D03*
%TD*%
D25*
%TO.C,U1*%
X116205400Y-103846200D03*
X116205400Y-90346200D03*
%TD*%
D26*
%TO.C,C2*%
X118757300Y-73202800D03*
X121882300Y-73202800D03*
%TD*%
D27*
%TO.C,R4*%
X153670000Y-57328000D03*
X153670000Y-60428000D03*
%TD*%
D28*
%TO.C,R3*%
X128016000Y-65508000D03*
X128016000Y-62408000D03*
%TD*%
D29*
%TO.C,BT1*%
X112400000Y-111380000D03*
D30*
X175930000Y-111380000D03*
D29*
X167600000Y-127380000D03*
D31*
X179330000Y-119380000D03*
X100670000Y-119380000D03*
%TD*%
D32*
%TO.C,R2*%
X128550000Y-68276000D03*
X125450000Y-68276000D03*
%TD*%
D33*
%TO.C,U2*%
X125070000Y-76440000D03*
X125070000Y-78740000D03*
D34*
X118770000Y-78740000D03*
D33*
X125070000Y-81040000D03*
%TD*%
D28*
%TO.C,R6*%
X153670000Y-65762000D03*
X153670000Y-62662000D03*
%TD*%
D35*
%TO.C,U3*%
X147600000Y-53800000D03*
X147600000Y-55800000D03*
X147600000Y-57800000D03*
X147600000Y-59800000D03*
X147600000Y-61800000D03*
X147600000Y-63800000D03*
X147600000Y-65800000D03*
X147600000Y-67800000D03*
D36*
X145000000Y-69300000D03*
X143000000Y-69300000D03*
X141000000Y-69300000D03*
X139000000Y-69300000D03*
X137000000Y-69300000D03*
X135000000Y-69300000D03*
D35*
X132400000Y-67800000D03*
X132400000Y-65800000D03*
X132400000Y-63800000D03*
X132400000Y-61800000D03*
X132400000Y-59800000D03*
X132400000Y-57800000D03*
X132400000Y-55800000D03*
X132400000Y-53800000D03*
%TD*%
D28*
%TO.C,R5*%
X128016000Y-60174000D03*
X128016000Y-57074000D03*
%TD*%
D26*
%TO.C,C1*%
X126199500Y-84074000D03*
X129324500Y-84074000D03*
%TD*%
M02*
