  0
SECTION
  2
HEADER
  9
$ACADVER
  1
AC1014
  9
$HANDSEED
  5
FFFF
  9
$MEASUREMENT
 70
     1
  0
ENDSEC
  0
SECTION
  2
TABLES
  0
TABLE
  2
VPORT
  5
8
330
0
100
AcDbSymbolTable
 70
     4
  0
VPORT
  5
2E
330
8
100
AcDbSymbolTableRecord
100
AcDbViewportTableRecord
  2
*ACTIVE
 70
     0
 10
0.0
 20
0.0
 11
1.0
 21
1.0
 12
210.0
 22
148.5
 13
0.0
 23
0.0
 14
10.0
 24
10.0
 15
10.0
 25
10.0
 16
0.0
 26
0.0
 36
1.0
 17
0.0
 27
0.0
 37
0.0
 40
341.0
 41
1.24
 42
50.0
 43
0.0
 44
0.0
 50
0.0
 51
0.0
 71
     0
 72
   100
 73
     1
 74
     3
 75
     0
 76
     0
 77
     0
 78
     0
  0
ENDTAB
  0
TABLE
  2
LTYPE
  5
5
330
0
100
AcDbSymbolTable
 70
     1
  0
LTYPE
  5
14
330
5
100
AcDbSymbolTableRecord
100
AcDbLinetypeTableRecord
  2
BYBLOCK
 70
     0
  3

 72
    65
 73
     0
 40
0.0
  0
LTYPE
  5
15
330
5
100
AcDbSymbolTableRecord
100
AcDbLinetypeTableRecord
  2
BYLAYER
 70
     0
  3

 72
    65
 73
     0
 40
0.0
  0
LTYPE
  5
16
330
5
100
AcDbSymbolTableRecord
100
AcDbLinetypeTableRecord
  2
CONTINUOUS
 70
     0
  3
Solid line
 72
    65
 73
     0
 40
0.0
  0
ENDTAB
  0
TABLE
  2
LAYER
  5
2
100
AcDbSymbolTable
 70
2
  0
LAYER
  5
50
100
AcDbSymbolTableRecord
100
AcDbLayerTableRecord
  2
0
 70
0
  6
CONTINUOUS
  0
LAYER
  5
51
100
AcDbSymbolTableRecord
100
AcDbLayerTableRecord
  2
Layer_1
 70
0
  6
CONTINUOUS
  0
ENDTAB
  0
TABLE
  2
STYLE
  5
3
330
0
100
AcDbSymbolTable
 70
     1
  0
STYLE
  5
11
330
3
100
AcDbSymbolTableRecord
100
AcDbTextStyleTableRecord
  2
STANDARD
 70
     0
 40
0.0
 41
1.0
 50
0.0
 71
     0
 42
2.5
  3
txt
  4

  0
ENDTAB
  0
TABLE
  2
VIEW
  5
6
330
0
100
AcDbSymbolTable
 70
     0
  0
ENDTAB
  0
TABLE
  2
UCS
  5
7
330
0
100
AcDbSymbolTable
 70
     0
  0
ENDTAB
  0
TABLE
  2
APPID
  5
9
330
0
100
AcDbSymbolTable
 70
     2
  0
APPID
  5
12
330
9
100
AcDbSymbolTableRecord
100
AcDbRegAppTableRecord
  2
ACAD
 70
     0
  0
ENDTAB
  0
TABLE
  2
DIMSTYLE
  5
A
330
0
100
AcDbSymbolTable
 70
     1
  0
DIMSTYLE
105
27
330
A
100
AcDbSymbolTableRecord
100
AcDbDimStyleTableRecord
  2
ISO-25
 70
     0
  3

  4

  5

  6

  7

 40
1.0
 41
2.5
 42
0.625
 43
3.75
 44
1.25
 45
0.0
 46
0.0
 47
0.0
 48
0.0
140
2.5
141
2.5
142
0.0
143
0.03937007874016
144
1.0
145
0.0
146
1.0
147
0.625
 71
     0
 72
     0
 73
     0
 74
     0
 75
     0
 76
     0
 77
     1
 78
     8
170
     0
171
     3
172
     1
173
     0
174
     0
175
     0
176
     0
177
     0
178
     0
270
     2
271
     2
272
     2
273
     2
274
     3
340
11
275
     0
280
     0
281
     0
282
     0
283
     0
284
     8
285
     0
286
     0
287
     3
288
     0
  0
ENDTAB
  0
TABLE
  2
BLOCK_RECORD
  5
1
330
0
100
AcDbSymbolTable
 70
     1
  0
BLOCK_RECORD
  5
1F
330
1
100
AcDbSymbolTableRecord
100
AcDbBlockTableRecord
  2
*MODEL_SPACE
  0
BLOCK_RECORD
  5
1B
330
1
100
AcDbSymbolTableRecord
100
AcDbBlockTableRecord
  2
*PAPER_SPACE
  0
ENDTAB
  0
ENDSEC
  0
SECTION
  2
BLOCKS
  0
BLOCK
  5
20
330
1F
100
AcDbEntity
  8
0
100
AcDbBlockBegin
  2
*MODEL_SPACE
 70
     0
 10
0.0
 20
0.0
 30
0.0
  3
*MODEL_SPACE
  1

  0
ENDBLK
  5
21
330
1F
100
AcDbEntity
  8
0
100
AcDbBlockEnd
  0
BLOCK
  5
1C
330
1B
100
AcDbEntity
 67
     1
  8
0
100
AcDbBlockBegin
  2
*PAPER_SPACE
  1

  0
ENDBLK
  5
1D
330
1B
100
AcDbEntity
 67
     1
  8
0
100
AcDbBlockEnd
  0
ENDSEC
  0
SECTION
  2
ENTITIES
  0
LWPOLYLINE
  5
100
100
AcDbEntity
  8
Layer_1
 62
7
100
AcDbPolyline
 90
3
 70
1
 10
110.587266
 20
678.259845
 30
0.0
 10
109.848825
 20
676.257431
 30
0.0
 10
111.328402
 20
676.257431
 30
0.0
  0
LWPOLYLINE
  5
101
100
AcDbEntity
  8
Layer_1
 62
7
100
AcDbPolyline
 90
8
 70
1
 10
110.280031
 20
678.796158
 30
0.0
 10
110.897195
 20
678.796158
 30
0.0
 10
112.430673
 20
674.772464
 30
0.0
 10
111.864715
 20
674.772464
 30
0.0
 10
111.498189
 20
675.804664
 30
0.0
 10
109.684428
 20
675.804664
 30
0.0
 10
109.317902
 20
674.772464
 30
0.0
 10
108.743859
 20
674.772464
 30
0.0
  0
LWPOLYLINE
  5
102
100
AcDbEntity
  8
Layer_1
 62
7
100
AcDbPolyline
 90
4
 70
1
 10
112.969681
 20
675.457004
 30
0.0
 10
113.538335
 20
675.457004
 30
0.0
 10
113.538335
 20
674.772464
 30
0.0
 10
112.969681
 20
674.772464
 30
0.0
  0
LWPOLYLINE
  5
103
100
AcDbEntity
  8
Layer_1
 62
7
100
AcDbPolyline
 90
8
 70
1
 10
114.117768
 20
678.796158
 30
0.0
 10
117.521603
 20
678.796158
 30
0.0
 10
117.521603
 20
678.338002
 30
0.0
 10
116.093232
 20
678.338002
 30
0.0
 10
116.093232
 20
674.772464
 30
0.0
 10
115.546139
 20
674.772464
 30
0.0
 10
115.546139
 20
678.338002
 30
0.0
 10
114.117768
 20
678.338002
 30
0.0
  0
SPLINE
  5
104
100
AcDbEntity
  8
Layer_1
 62
7
100
AcDbSpline
 70
8
 71
3
 72
8
 73
4
 74
0
 40
0
 40
0
 40
0
 40
0
 40
1
 40
1
 40
1
 40
1
 10
120.779906
 20
678.426938
 30
0.0
 10
120.384634
 20
678.426938
 30
0.0
 10
120.070212
 20
678.279609
 30
0.0
 10
119.836642
 20
677.984952
 30
0.0
  0
SPLINE
  5
105
100
AcDbEntity
  8
Layer_1
 62
7
100
AcDbSpline
 70
8
 71
3
 72
8
 73
4
 74
0
 40
0
 40
0
 40
0
 40
0
 40
1
 40
1
 40
1
 40
1
 10
119.836642
 20
677.984952
 30
0.0
 10
119.604869
 20
677.690294
 30
0.0
 10
119.488982
 20
677.288733
 30
0.0
 10
119.488982
 20
676.780269
 30
0.0
  0
SPLINE
  5
106
100
AcDbEntity
  8
Layer_1
 62
7
100
AcDbSpline
 70
8
 71
3
 72
8
 73
4
 74
0
 40
0
 40
0
 40
0
 40
0
 40
1
 40
1
 40
1
 40
1
 10
119.488982
 20
676.780269
 30
0.0
 10
119.488982
 20
676.273601
 30
0.0
 10
119.604869
 20
675.872939
 30
0.0
 10
119.836642
 20
675.578281
 30
0.0
  0
SPLINE
  5
107
100
AcDbEntity
  8
Layer_1
 62
7
100
AcDbSpline
 70
8
 71
3
 72
8
 73
4
 74
0
 40
0
 40
0
 40
0
 40
0
 40
1
 40
1
 40
1
 40
1
 10
119.836642
 20
675.578281
 30
0.0
 10
120.070212
 20
675.283623
 30
0.0
 10
120.384634
 20
675.136295
 30
0.0
 10
120.779906
 20
675.136295
 30
0.0
  0
SPLINE
  5
108
100
AcDbEntity
  8
Layer_1
 62
7
100
AcDbSpline
 70
8
 71
3
 72
8
 73
4
 74
0
 40
0
 40
0
 40
0
 40
0
 40
1
 40
1
 40
1
 40
1
 10
120.779906
 20
675.136295
 30
0.0
 10
121.175179
 20
675.136295
 30
0.0
 10
121.487804
 20
675.283623
 30
0.0
 10
121.717780
 20
675.578281
 30
0.0
  0
SPLINE
  5
109
100
AcDbEntity
  8
Layer_1
 62
7
100
AcDbSpline
 70
8
 71
3
 72
8
 73
4
 74
0
 40
0
 40
0
 40
0
 40
0
 40
1
 40
1
 40
1
 40
1
 10
121.717780
 20
675.578281
 30
0.0
 10
121.949554
 20
675.872939
 30
0.0
 10
122.065440
 20
676.273601
 30
0.0
 10
122.065440
 20
676.780269
 30
0.0
  0
SPLINE
  5
10a
100
AcDbEntity
  8
Layer_1
 62
7
100
AcDbSpline
 70
8
 71
3
 72
8
 73
4
 74
0
 40
0
 40
0
 40
0
 40
0
 40
1
 40
1
 40
1
 40
1
 10
122.065440
 20
676.780269
 30
0.0
 10
122.065440
 20
677.288733
 30
0.0
 10
121.949554
 20
677.690294
 30
0.0
 10
121.717780
 20
677.984952
 30
0.0
  0
SPLINE
  5
10b
100
AcDbEntity
  8
Layer_1
 62
7
100
AcDbSpline
 70
8
 71
3
 72
8
 73
4
 74
0
 40
0
 40
0
 40
0
 40
0
 40
1
 40
1
 40
1
 40
1
 10
121.717780
 20
677.984952
 30
0.0
 10
121.487804
 20
678.279609
 30
0.0
 10
121.175179
 20
678.426938
 30
0.0
 10
120.779906
 20
678.426938
 30
0.0
  0
LWPOLYLINE
  5
10c
100
AcDbEntity
  8
Layer_1
 62
7
100
AcDbPolyline
 90
4
 70
1
 10
117.440752
 20
675.457004
 30
0.0
 10
118.009405
 20
675.457004
 30
0.0
 10
118.009405
 20
674.772464
 30
0.0
 10
117.440752
 20
674.772464
 30
0.0
  0
SPLINE
  5
10d
100
AcDbEntity
  8
Layer_1
 62
7
100
AcDbSpline
 70
8
 71
3
 72
8
 73
4
 74
0
 40
0
 40
0
 40
0
 40
0
 40
1
 40
1
 40
1
 40
1
 10
120.779906
 20
678.868924
 30
0.0
 10
121.344068
 20
678.868924
 30
0.0
 10
121.795038
 20
678.679373
 30
0.0
 10
122.132816
 20
678.300271
 30
0.0
  0
SPLINE
  5
10e
100
AcDbEntity
  8
Layer_1
 62
7
100
AcDbSpline
 70
8
 71
3
 72
8
 73
4
 74
0
 40
0
 40
0
 40
0
 40
0
 40
1
 40
1
 40
1
 40
1
 10
122.132816
 20
678.300271
 30
0.0
 10
122.470595
 20
677.922966
 30
0.0
 10
122.639484
 20
677.416298
 30
0.0
 10
122.639484
 20
676.780269
 30
0.0
  0
SPLINE
  5
10f
100
AcDbEntity
  8
Layer_1
 62
7
100
AcDbSpline
 70
8
 71
3
 72
8
 73
4
 74
0
 40
0
 40
0
 40
0
 40
0
 40
1
 40
1
 40
1
 40
1
 10
122.639484
 20
676.780269
 30
0.0
 10
122.639484
 20
676.146036
 30
0.0
 10
122.470595
 20
675.639369
 30
0.0
 10
122.132816
 20
675.260266
 30
0.0
  0
SPLINE
  5
110
100
AcDbEntity
  8
Layer_1
 62
7
100
AcDbSpline
 70
8
 71
3
 72
8
 73
4
 74
0
 40
0
 40
0
 40
0
 40
0
 40
1
 40
1
 40
1
 40
1
 10
122.132816
 20
675.260266
 30
0.0
 10
121.795038
 20
674.882961
 30
0.0
 10
121.344068
 20
674.694308
 30
0.0
 10
120.779906
 20
674.694308
 30
0.0
  0
SPLINE
  5
111
100
AcDbEntity
  8
Layer_1
 62
7
100
AcDbSpline
 70
8
 71
3
 72
8
 73
4
 74
0
 40
0
 40
0
 40
0
 40
0
 40
1
 40
1
 40
1
 40
1
 10
120.779906
 20
674.694308
 30
0.0
 10
120.213948
 20
674.694308
 30
0.0
 10
119.761181
 20
674.882961
 30
0.0
 10
119.421606
 20
675.260266
 30
0.0
  0
SPLINE
  5
112
100
AcDbEntity
  8
Layer_1
 62
7
100
AcDbSpline
 70
8
 71
3
 72
8
 73
4
 74
0
 40
0
 40
0
 40
0
 40
0
 40
1
 40
1
 40
1
 40
1
 10
119.421606
 20
675.260266
 30
0.0
 10
119.083828
 20
675.637572
 30
0.0
 10
118.914939
 20
676.144239
 30
0.0
 10
118.914939
 20
676.780269
 30
0.0
  0
SPLINE
  5
113
100
AcDbEntity
  8
Layer_1
 62
7
100
AcDbSpline
 70
8
 71
3
 72
8
 73
4
 74
0
 40
0
 40
0
 40
0
 40
0
 40
1
 40
1
 40
1
 40
1
 10
118.914939
 20
676.780269
 30
0.0
 10
118.914939
 20
677.416298
 30
0.0
 10
119.083828
 20
677.922966
 30
0.0
 10
119.421606
 20
678.300271
 30
0.0
  0
SPLINE
  5
114
100
AcDbEntity
  8
Layer_1
 62
7
100
AcDbSpline
 70
8
 71
3
 72
8
 73
4
 74
0
 40
0
 40
0
 40
0
 40
0
 40
1
 40
1
 40
1
 40
1
 10
119.421606
 20
678.300271
 30
0.0
 10
119.761181
 20
678.679373
 30
0.0
 10
120.213948
 20
678.868924
 30
0.0
 10
120.779906
 20
678.868924
 30
0.0
  0
LWPOLYLINE
  5
115
100
AcDbEntity
  8
Layer_1
 62
7
100
AcDbPolyline
 90
1
 70
1
 10
120.779906
 20
678.426938
 30
0.0
  0
LWPOLYLINE
  5
116
100
AcDbEntity
  8
Layer_1
 62
7
100
AcDbPolyline
 90
1
 70
1
 10
120.779906
 20
678.868924
 30
0.0
  0
LWPOLYLINE
  5
117
100
AcDbEntity
  8
Layer_1
 62
7
100
AcDbPolyline
 90
4
 70
1
 10
123.315939
 20
675.457004
 30
0.0
 10
123.884592
 20
675.457004
 30
0.0
 10
123.884592
 20
674.772464
 30
0.0
 10
123.315939
 20
674.772464
 30
0.0
  0
SPLINE
  5
118
100
AcDbEntity
  8
Layer_1
 62
7
100
AcDbSpline
 70
8
 71
3
 72
8
 73
4
 74
0
 40
0
 40
0
 40
0
 40
0
 40
1
 40
1
 40
1
 40
1
 10
111.150529
 20
669.759690
 30
0.0
 10
111.267314
 20
669.720163
 30
0.0
 10
111.380506
 20
669.635718
 30
0.0
 10
111.490104
 20
669.506356
 30
0.0
  0
SPLINE
  5
119
100
AcDbEntity
  8
Layer_1
 62
7
100
AcDbSpline
 70
8
 71
3
 72
8
 73
4
 74
0
 40
0
 40
0
 40
0
 40
0
 40
1
 40
1
 40
1
 40
1
 10
111.490104
 20
669.506356
 30
0.0
 10
111.601499
 20
669.376995
 30
0.0
 10
111.712894
 20
669.199122
 30
0.0
 10
111.824289
 20
668.972739
 30
0.0
  0
LWPOLYLINE
  5
11a
100
AcDbEntity
  8
Layer_1
 62
7
100
AcDbPolyline
 90
13
 70
1
 10
125.021899
 20
678.796158
 30
0.0
 10
125.833106
 20
678.796158
 30
0.0
 10
126.859916
 20
676.057998
 30
0.0
 10
127.892116
 20
678.796158
 30
0.0
 10
128.703324
 20
678.796158
 30
0.0
 10
128.703324
 20
674.772464
 30
0.0
 10
128.172400
 20
674.772464
 30
0.0
 10
128.172400
 20
678.305661
 30
0.0
 10
127.134810
 20
675.545940
 30
0.0
 10
126.587717
 20
675.545940
 30
0.0
 10
125.550127
 20
678.305661
 30
0.0
 10
125.550127
 20
674.772464
 30
0.0
 10
125.021899
 20
674.772464
 30
0.0
  0
SPLINE
  5
11b
100
AcDbEntity
  8
Layer_1
 62
7
100
AcDbSpline
 70
8
 71
3
 72
8
 73
4
 74
0
 40
0
 40
0
 40
0
 40
0
 40
1
 40
1
 40
1
 40
1
 10
111.277196
 20
668.905363
 30
0.0
 10
111.144241
 20
669.174867
 30
0.0
 10
111.014879
 20
669.353638
 30
0.0
 10
110.889111
 20
669.441675
 30
0.0
  0
SPLINE
  5
11c
100
AcDbEntity
  8
Layer_1
 62
7
100
AcDbSpline
 70
8
 71
3
 72
8
 73
4
 74
0
 40
0
 40
0
 40
0
 40
0
 40
1
 40
1
 40
1
 40
1
 10
110.889111
 20
669.441675
 30
0.0
 10
110.765139
 20
669.529713
 30
0.0
 10
110.595351
 20
669.573732
 30
0.0
 10
110.379748
 20
669.573732
 30
0.0
  0
LWPOLYLINE
  5
11d
100
AcDbEntity
  8
Layer_1
 62
7
100
AcDbPolyline
 90
4
 70
0
 10
111.824289
 20
668.972739
 30
0.0
 10
112.376772
 20
667.873162
 30
0.0
 10
111.791949
 20
667.873162
 30
0.0
 10
111.277196
 20
668.905363
 30
0.0
  0
SPLINE
  5
11e
100
AcDbEntity
  8
Layer_1
 62
7
100
AcDbSpline
 70
8
 71
3
 72
8
 73
4
 74
0
 40
0
 40
0
 40
0
 40
0
 40
1
 40
1
 40
1
 40
1
 10
110.471379
 20
671.896857
 30
0.0
 10
110.931333
 20
671.896857
 30
0.0
 10
111.274501
 20
671.800733
 30
0.0
 10
111.500884
 20
671.608487
 30
0.0
  0
SPLINE
  5
11f
100
AcDbEntity
  8
Layer_1
 62
7
100
AcDbSpline
 70
8
 71
3
 72
8
 73
4
 74
0
 40
0
 40
0
 40
0
 40
0
 40
1
 40
1
 40
1
 40
1
 10
111.500884
 20
671.608487
 30
0.0
 10
111.727268
 20
671.416241
 30
0.0
 10
111.840459
 20
671.126075
 30
0.0
 10
111.840459
 20
670.737990
 30
0.0
  0
SPLINE
  5
120
100
AcDbEntity
  8
Layer_1
 62
7
100
AcDbSpline
 70
8
 71
3
 72
8
 73
4
 74
0
 40
0
 40
0
 40
0
 40
0
 40
1
 40
1
 40
1
 40
1
 10
111.840459
 20
670.737990
 30
0.0
 10
111.840459
 20
670.484656
 30
0.0
 10
111.781169
 20
670.274443
 30
0.0
 10
111.662587
 20
670.107350
 30
0.0
  0
SPLINE
  5
121
100
AcDbEntity
  8
Layer_1
 62
7
100
AcDbSpline
 70
8
 71
3
 72
8
 73
4
 74
0
 40
0
 40
0
 40
0
 40
0
 40
1
 40
1
 40
1
 40
1
 10
111.662587
 20
670.107350
 30
0.0
 10
111.545802
 20
669.940258
 30
0.0
 10
111.375116
 20
669.824371
 30
0.0
 10
111.150529
 20
669.759690
 30
0.0
  0
LWPOLYLINE
  5
122
100
AcDbEntity
  8
Layer_1
 62
7
100
AcDbPolyline
 90
6
 70
0
 10
110.379748
 20
669.573732
 30
0.0
 10
109.786839
 20
669.573732
 30
0.0
 10
109.786839
 20
667.873162
 30
0.0
 10
109.242441
 20
667.873162
 30
0.0
 10
109.242441
 20
671.896857
 30
0.0
 10
110.471379
 20
671.896857
 30
0.0
  0
LWPOLYLINE
  5
123
100
AcDbEntity
  8
Layer_1
 62
7
100
AcDbPolyline
 90
1
 70
1
 10
111.150529
 20
669.759690
 30
0.0
  0
SPLINE
  5
124
100
AcDbEntity
  8
Layer_1
 62
7
100
AcDbSpline
 70
8
 71
3
 72
8
 73
4
 74
0
 40
0
 40
0
 40
0
 40
0
 40
1
 40
1
 40
1
 40
1
 10
110.471379
 20
670.021109
 30
0.0
 10
110.733697
 20
670.021109
 30
0.0
 10
110.931333
 20
670.081298
 30
0.0
 10
111.064288
 20
670.201677
 30
0.0
  0
SPLINE
  5
125
100
AcDbEntity
  8
Layer_1
 62
7
100
AcDbSpline
 70
8
 71
3
 72
8
 73
4
 74
0
 40
0
 40
0
 40
0
 40
0
 40
1
 40
1
 40
1
 40
1
 10
111.064288
 20
670.201677
 30
0.0
 10
111.199040
 20
670.323852
 30
0.0
 10
111.266416
 20
670.502623
 30
0.0
 10
111.266416
 20
670.737990
 30
0.0
  0
SPLINE
  5
126
100
AcDbEntity
  8
Layer_1
 62
7
100
AcDbSpline
 70
8
 71
3
 72
8
 73
4
 74
0
 40
0
 40
0
 40
0
 40
0
 40
1
 40
1
 40
1
 40
1
 10
111.266416
 20
670.737990
 30
0.0
 10
111.266416
 20
670.973356
 30
0.0
 10
111.199040
 20
671.150331
 30
0.0
 10
111.064288
 20
671.268912
 30
0.0
  0
SPLINE
  5
127
100
AcDbEntity
  8
Layer_1
 62
7
100
AcDbSpline
 70
8
 71
3
 72
8
 73
4
 74
0
 40
0
 40
0
 40
0
 40
0
 40
1
 40
1
 40
1
 40
1
 10
111.064288
 20
671.268912
 30
0.0
 10
110.931333
 20
671.389291
 30
0.0
 10
110.733697
 20
671.449480
 30
0.0
 10
110.471379
 20
671.449480
 30
0.0
  0
LWPOLYLINE
  5
128
100
AcDbEntity
  8
Layer_1
 62
7
100
AcDbPolyline
 90
3
 70
0
 10
109.786839
 20
671.449480
 30
0.0
 10
109.786839
 20
670.021109
 30
0.0
 10
110.471379
 20
670.021109
 30
0.0
  0
SPLINE
  5
129
100
AcDbEntity
  8
Layer_1
 62
7
100
AcDbSpline
 70
8
 71
3
 72
8
 73
4
 74
0
 40
0
 40
0
 40
0
 40
0
 40
1
 40
1
 40
1
 40
1
 10
114.710677
 20
671.527636
 30
0.0
 10
114.315404
 20
671.527636
 30
0.0
 10
114.000983
 20
671.380307
 30
0.0
 10
113.767413
 20
671.085650
 30
0.0
  0
SPLINE
  5
12a
100
AcDbEntity
  8
Layer_1
 62
7
100
AcDbSpline
 70
8
 71
3
 72
8
 73
4
 74
0
 40
0
 40
0
 40
0
 40
0
 40
1
 40
1
 40
1
 40
1
 10
113.767413
 20
671.085650
 30
0.0
 10
113.535639
 20
670.790992
 30
0.0
 10
113.419753
 20
670.389431
 30
0.0
 10
113.419753
 20
669.880967
 30
0.0
  0
SPLINE
  5
12b
100
AcDbEntity
  8
Layer_1
 62
7
100
AcDbSpline
 70
8
 71
3
 72
8
 73
4
 74
0
 40
0
 40
0
 40
0
 40
0
 40
1
 40
1
 40
1
 40
1
 10
113.419753
 20
669.880967
 30
0.0
 10
113.419753
 20
669.374300
 30
0.0
 10
113.535639
 20
668.973637
 30
0.0
 10
113.767413
 20
668.678979
 30
0.0
  0
SPLINE
  5
12c
100
AcDbEntity
  8
Layer_1
 62
7
100
AcDbSpline
 70
8
 71
3
 72
8
 73
4
 74
0
 40
0
 40
0
 40
0
 40
0
 40
1
 40
1
 40
1
 40
1
 10
113.767413
 20
668.678979
 30
0.0
 10
114.000983
 20
668.384321
 30
0.0
 10
114.315404
 20
668.236993
 30
0.0
 10
114.710677
 20
668.236993
 30
0.0
  0
SPLINE
  5
12d
100
AcDbEntity
  8
Layer_1
 62
7
100
AcDbSpline
 70
8
 71
3
 72
8
 73
4
 74
0
 40
0
 40
0
 40
0
 40
0
 40
1
 40
1
 40
1
 40
1
 10
114.710677
 20
668.236993
 30
0.0
 10
115.105949
 20
668.236993
 30
0.0
 10
115.418574
 20
668.384321
 30
0.0
 10
115.648551
 20
668.678979
 30
0.0
  0
SPLINE
  5
12e
100
AcDbEntity
  8
Layer_1
 62
7
100
AcDbSpline
 70
8
 71
3
 72
8
 73
4
 74
0
 40
0
 40
0
 40
0
 40
0
 40
1
 40
1
 40
1
 40
1
 10
115.648551
 20
668.678979
 30
0.0
 10
115.880324
 20
668.973637
 30
0.0
 10
115.996211
 20
669.374300
 30
0.0
 10
115.996211
 20
669.880967
 30
0.0
  0
SPLINE
  5
12f
100
AcDbEntity
  8
Layer_1
 62
7
100
AcDbSpline
 70
8
 71
3
 72
8
 73
4
 74
0
 40
0
 40
0
 40
0
 40
0
 40
1
 40
1
 40
1
 40
1
 10
115.996211
 20
669.880967
 30
0.0
 10
115.996211
 20
670.389431
 30
0.0
 10
115.880324
 20
670.790992
 30
0.0
 10
115.648551
 20
671.085650
 30
0.0
  0
SPLINE
  5
130
100
AcDbEntity
  8
Layer_1
 62
7
100
AcDbSpline
 70
8
 71
3
 72
8
 73
4
 74
0
 40
0
 40
0
 40
0
 40
0
 40
1
 40
1
 40
1
 40
1
 10
115.648551
 20
671.085650
 30
0.0
 10
115.418574
 20
671.380307
 30
0.0
 10
115.105949
 20
671.527636
 30
0.0
 10
114.710677
 20
671.527636
 30
0.0
  0
LWPOLYLINE
  5
131
100
AcDbEntity
  8
Layer_1
 62
7
100
AcDbPolyline
 90
2
 70
0
 10
110.471379
 20
671.449480
 30
0.0
 10
109.786839
 20
671.449480
 30
0.0
  0
SPLINE
  5
132
100
AcDbEntity
  8
Layer_1
 62
7
100
AcDbSpline
 70
8
 71
3
 72
8
 73
4
 74
0
 40
0
 40
0
 40
0
 40
0
 40
1
 40
1
 40
1
 40
1
 10
114.710677
 20
671.969623
 30
0.0
 10
115.274839
 20
671.969623
 30
0.0
 10
115.725809
 20
671.780072
 30
0.0
 10
116.063587
 20
671.400969
 30
0.0
  0
SPLINE
  5
133
100
AcDbEntity
  8
Layer_1
 62
7
100
AcDbSpline
 70
8
 71
3
 72
8
 73
4
 74
0
 40
0
 40
0
 40
0
 40
0
 40
1
 40
1
 40
1
 40
1
 10
116.063587
 20
671.400969
 30
0.0
 10
116.401365
 20
671.023664
 30
0.0
 10
116.570254
 20
670.516997
 30
0.0
 10
116.570254
 20
669.880967
 30
0.0
  0
SPLINE
  5
134
100
AcDbEntity
  8
Layer_1
 62
7
100
AcDbSpline
 70
8
 71
3
 72
8
 73
4
 74
0
 40
0
 40
0
 40
0
 40
0
 40
1
 40
1
 40
1
 40
1
 10
116.570254
 20
669.880967
 30
0.0
 10
116.570254
 20
669.246734
 30
0.0
 10
116.401365
 20
668.740067
 30
0.0
 10
116.063587
 20
668.360964
 30
0.0
  0
SPLINE
  5
135
100
AcDbEntity
  8
Layer_1
 62
7
100
AcDbSpline
 70
8
 71
3
 72
8
 73
4
 74
0
 40
0
 40
0
 40
0
 40
0
 40
1
 40
1
 40
1
 40
1
 10
116.063587
 20
668.360964
 30
0.0
 10
115.725809
 20
667.983659
 30
0.0
 10
115.274839
 20
667.795006
 30
0.0
 10
114.710677
 20
667.795006
 30
0.0
  0
SPLINE
  5
136
100
AcDbEntity
  8
Layer_1
 62
7
100
AcDbSpline
 70
8
 71
3
 72
8
 73
4
 74
0
 40
0
 40
0
 40
0
 40
0
 40
1
 40
1
 40
1
 40
1
 10
114.710677
 20
667.795006
 30
0.0
 10
114.144719
 20
667.795006
 30
0.0
 10
113.691952
 20
667.983659
 30
0.0
 10
113.352377
 20
668.360964
 30
0.0
  0
SPLINE
  5
137
100
AcDbEntity
  8
Layer_1
 62
7
100
AcDbSpline
 70
8
 71
3
 72
8
 73
4
 74
0
 40
0
 40
0
 40
0
 40
0
 40
1
 40
1
 40
1
 40
1
 10
113.352377
 20
668.360964
 30
0.0
 10
113.014598
 20
668.738270
 30
0.0
 10
112.845709
 20
669.244937
 30
0.0
 10
112.845709
 20
669.880967
 30
0.0
  0
SPLINE
  5
138
100
AcDbEntity
  8
Layer_1
 62
7
100
AcDbSpline
 70
8
 71
3
 72
8
 73
4
 74
0
 40
0
 40
0
 40
0
 40
0
 40
1
 40
1
 40
1
 40
1
 10
112.845709
 20
669.880967
 30
0.0
 10
112.845709
 20
670.516997
 30
0.0
 10
113.014598
 20
671.023664
 30
0.0
 10
113.352377
 20
671.400969
 30
0.0
  0
SPLINE
  5
139
100
AcDbEntity
  8
Layer_1
 62
7
100
AcDbSpline
 70
8
 71
3
 72
8
 73
4
 74
0
 40
0
 40
0
 40
0
 40
0
 40
1
 40
1
 40
1
 40
1
 10
113.352377
 20
671.400969
 30
0.0
 10
113.691952
 20
671.780072
 30
0.0
 10
114.144719
 20
671.969623
 30
0.0
 10
114.710677
 20
671.969623
 30
0.0
  0
LWPOLYLINE
  5
13a
100
AcDbEntity
  8
Layer_1
 62
7
100
AcDbPolyline
 90
1
 70
1
 10
114.710677
 20
671.527636
 30
0.0
  0
LWPOLYLINE
  5
13b
100
AcDbEntity
  8
Layer_1
 62
7
100
AcDbPolyline
 90
1
 70
1
 10
114.710677
 20
671.969623
 30
0.0
  0
SPLINE
  5
13c
100
AcDbEntity
  8
Layer_1
 62
7
100
AcDbSpline
 70
8
 71
3
 72
8
 73
4
 74
0
 40
0
 40
0
 40
0
 40
0
 40
1
 40
1
 40
1
 40
1
 10
118.839478
 20
668.320539
 30
0.0
 10
119.132339
 20
668.320539
 30
0.0
 10
119.348840
 20
668.380728
 30
0.0
 10
119.488982
 20
668.501107
 30
0.0
  0
SPLINE
  5
13d
100
AcDbEntity
  8
Layer_1
 62
7
100
AcDbSpline
 70
8
 71
3
 72
8
 73
4
 74
0
 40
0
 40
0
 40
0
 40
0
 40
1
 40
1
 40
1
 40
1
 10
119.488982
 20
668.501107
 30
0.0
 10
119.630921
 20
668.623282
 30
0.0
 10
119.701890
 20
668.809239
 30
0.0
 10
119.701890
 20
669.058980
 30
0.0
  0
SPLINE
  5
13e
100
AcDbEntity
  8
Layer_1
 62
7
100
AcDbSpline
 70
8
 71
3
 72
8
 73
4
 74
0
 40
0
 40
0
 40
0
 40
0
 40
1
 40
1
 40
1
 40
1
 10
119.701890
 20
669.058980
 30
0.0
 10
119.701890
 20
669.310517
 30
0.0
 10
119.630921
 20
669.495576
 30
0.0
 10
119.488982
 20
669.614158
 30
0.0
  0
SPLINE
  5
13f
100
AcDbEntity
  8
Layer_1
 62
7
100
AcDbSpline
 70
8
 71
3
 72
8
 73
4
 74
0
 40
0
 40
0
 40
0
 40
0
 40
1
 40
1
 40
1
 40
1
 10
119.488982
 20
669.614158
 30
0.0
 10
119.348840
 20
669.734537
 30
0.0
 10
119.132339
 20
669.794726
 30
0.0
 10
118.839478
 20
669.794726
 30
0.0
  0
LWPOLYLINE
  5
140
100
AcDbEntity
  8
Layer_1
 62
7
100
AcDbPolyline
 90
3
 70
0
 10
117.966285
 20
669.794726
 30
0.0
 10
117.966285
 20
668.320539
 30
0.0
 10
118.839478
 20
668.320539
 30
0.0
  0
LWPOLYLINE
  5
141
100
AcDbEntity
  8
Layer_1
 62
7
100
AcDbPolyline
 90
2
 70
0
 10
118.839478
 20
669.794726
 30
0.0
 10
117.966285
 20
669.794726
 30
0.0
  0
SPLINE
  5
142
100
AcDbEntity
  8
Layer_1
 62
7
100
AcDbSpline
 70
8
 71
3
 72
8
 73
4
 74
0
 40
0
 40
0
 40
0
 40
0
 40
1
 40
1
 40
1
 40
1
 10
118.772102
 20
670.236712
 30
0.0
 10
119.038012
 20
670.236712
 30
0.0
 10
119.235649
 20
670.286121
 30
0.0
 10
119.365010
 20
670.384939
 30
0.0
  0
SPLINE
  5
143
100
AcDbEntity
  8
Layer_1
 62
7
100
AcDbSpline
 70
8
 71
3
 72
8
 73
4
 74
0
 40
0
 40
0
 40
0
 40
0
 40
1
 40
1
 40
1
 40
1
 10
119.365010
 20
670.384939
 30
0.0
 10
119.496169
 20
670.485554
 30
0.0
 10
119.561749
 20
670.638273
 30
0.0
 10
119.561749
 20
670.843096
 30
0.0
  0
SPLINE
  5
144
100
AcDbEntity
  8
Layer_1
 62
7
100
AcDbSpline
 70
8
 71
3
 72
8
 73
4
 74
0
 40
0
 40
0
 40
0
 40
0
 40
1
 40
1
 40
1
 40
1
 10
119.561749
 20
670.843096
 30
0.0
 10
119.561749
 20
671.046122
 30
0.0
 10
119.496169
 20
671.197943
 30
0.0
 10
119.365010
 20
671.298558
 30
0.0
  0
SPLINE
  5
145
100
AcDbEntity
  8
Layer_1
 62
7
100
AcDbSpline
 70
8
 71
3
 72
8
 73
4
 74
0
 40
0
 40
0
 40
0
 40
0
 40
1
 40
1
 40
1
 40
1
 10
119.365010
 20
671.298558
 30
0.0
 10
119.235649
 20
671.399173
 30
0.0
 10
119.038012
 20
671.449480
 30
0.0
 10
118.772102
 20
671.449480
 30
0.0
  0
LWPOLYLINE
  5
146
100
AcDbEntity
  8
Layer_1
 62
7
100
AcDbPolyline
 90
3
 70
0
 10
117.966285
 20
671.449480
 30
0.0
 10
117.966285
 20
670.236712
 30
0.0
 10
118.772102
 20
670.236712
 30
0.0
  0
LWPOLYLINE
  5
147
100
AcDbEntity
  8
Layer_1
 62
7
100
AcDbPolyline
 90
2
 70
0
 10
118.772102
 20
671.449480
 30
0.0
 10
117.966285
 20
671.449480
 30
0.0
  0
SPLINE
  5
148
100
AcDbEntity
  8
Layer_1
 62
7
100
AcDbSpline
 70
8
 71
3
 72
8
 73
4
 74
0
 40
0
 40
0
 40
0
 40
0
 40
1
 40
1
 40
1
 40
1
 10
118.812527
 20
671.896857
 30
0.0
 10
119.227564
 20
671.896857
 30
0.0
 10
119.547375
 20
671.810615
 30
0.0
 10
119.771962
 20
671.638133
 30
0.0
  0
SPLINE
  5
149
100
AcDbEntity
  8
Layer_1
 62
7
100
AcDbSpline
 70
8
 71
3
 72
8
 73
4
 74
0
 40
0
 40
0
 40
0
 40
0
 40
1
 40
1
 40
1
 40
1
 10
119.771962
 20
671.638133
 30
0.0
 10
119.996548
 20
671.465650
 30
0.0
 10
120.108842
 20
671.220402
 30
0.0
 10
120.108842
 20
670.902387
 30
0.0
  0
SPLINE
  5
14a
100
AcDbEntity
  8
Layer_1
 62
7
100
AcDbSpline
 70
8
 71
3
 72
8
 73
4
 74
0
 40
0
 40
0
 40
0
 40
0
 40
1
 40
1
 40
1
 40
1
 10
120.108842
 20
670.902387
 30
0.0
 10
120.108842
 20
670.656240
 30
0.0
 10
120.051347
 20
670.460401
 30
0.0
 10
119.936359
 20
670.314868
 30
0.0
  0
SPLINE
  5
14b
100
AcDbEntity
  8
Layer_1
 62
7
100
AcDbSpline
 70
8
 71
3
 72
8
 73
4
 74
0
 40
0
 40
0
 40
0
 40
0
 40
1
 40
1
 40
1
 40
1
 10
119.936359
 20
670.314868
 30
0.0
 10
119.821371
 20
670.169336
 30
0.0
 10
119.652482
 20
670.078603
 30
0.0
 10
119.429692
 20
670.042669
 30
0.0
  0
SPLINE
  5
14c
100
AcDbEntity
  8
Layer_1
 62
7
100
AcDbSpline
 70
8
 71
3
 72
8
 73
4
 74
0
 40
0
 40
0
 40
0
 40
0
 40
1
 40
1
 40
1
 40
1
 10
119.429692
 20
670.042669
 30
0.0
 10
119.697399
 20
669.985175
 30
0.0
 10
119.904917
 20
669.864797
 30
0.0
 10
120.052246
 20
669.681534
 30
0.0
  0
SPLINE
  5
14d
100
AcDbEntity
  8
Layer_1
 62
7
100
AcDbSpline
 70
8
 71
3
 72
8
 73
4
 74
0
 40
0
 40
0
 40
0
 40
0
 40
1
 40
1
 40
1
 40
1
 10
120.052246
 20
669.681534
 30
0.0
 10
120.201372
 20
669.500068
 30
0.0
 10
120.275934
 20
669.272786
 30
0.0
 10
120.275934
 20
668.999689
 30
0.0
  0
SPLINE
  5
14e
100
AcDbEntity
  8
Layer_1
 62
7
100
AcDbSpline
 70
8
 71
3
 72
8
 73
4
 74
0
 40
0
 40
0
 40
0
 40
0
 40
1
 40
1
 40
1
 40
1
 10
120.275934
 20
668.999689
 30
0.0
 10
120.275934
 20
668.640350
 30
0.0
 10
120.153759
 20
668.362761
 30
0.0
 10
119.909409
 20
668.166922
 30
0.0
  0
SPLINE
  5
14f
100
AcDbEntity
  8
Layer_1
 62
7
100
AcDbSpline
 70
8
 71
3
 72
8
 73
4
 74
0
 40
0
 40
0
 40
0
 40
0
 40
1
 40
1
 40
1
 40
1
 10
119.909409
 20
668.166922
 30
0.0
 10
119.665058
 20
667.971082
 30
0.0
 10
119.317398
 20
667.873162
 30
0.0
 10
118.866428
 20
667.873162
 30
0.0
  0
LWPOLYLINE
  5
150
100
AcDbEntity
  8
Layer_1
 62
7
100
AcDbPolyline
 90
2
 70
0
 10
117.421887
 20
671.896857
 30
0.0
 10
118.812527
 20
671.896857
 30
0.0
  0
SPLINE
  5
151
100
AcDbEntity
  8
Layer_1
 62
7
100
AcDbSpline
 70
8
 71
3
 72
8
 73
4
 74
0
 40
0
 40
0
 40
0
 40
0
 40
1
 40
1
 40
1
 40
1
 10
122.744591
 20
671.527636
 30
0.0
 10
122.349319
 20
671.527636
 30
0.0
 10
122.034897
 20
671.380307
 30
0.0
 10
121.801327
 20
671.085650
 30
0.0
  0
SPLINE
  5
152
100
AcDbEntity
  8
Layer_1
 62
7
100
AcDbSpline
 70
8
 71
3
 72
8
 73
4
 74
0
 40
0
 40
0
 40
0
 40
0
 40
1
 40
1
 40
1
 40
1
 10
121.801327
 20
671.085650
 30
0.0
 10
121.569554
 20
670.790992
 30
0.0
 10
121.453667
 20
670.389431
 30
0.0
 10
121.453667
 20
669.880967
 30
0.0
  0
SPLINE
  5
153
100
AcDbEntity
  8
Layer_1
 62
7
100
AcDbSpline
 70
8
 71
3
 72
8
 73
4
 74
0
 40
0
 40
0
 40
0
 40
0
 40
1
 40
1
 40
1
 40
1
 10
121.453667
 20
669.880967
 30
0.0
 10
121.453667
 20
669.374300
 30
0.0
 10
121.569554
 20
668.973637
 30
0.0
 10
121.801327
 20
668.678979
 30
0.0
  0
SPLINE
  5
154
100
AcDbEntity
  8
Layer_1
 62
7
100
AcDbSpline
 70
8
 71
3
 72
8
 73
4
 74
0
 40
0
 40
0
 40
0
 40
0
 40
1
 40
1
 40
1
 40
1
 10
121.801327
 20
668.678979
 30
0.0
 10
122.034897
 20
668.384321
 30
0.0
 10
122.349319
 20
668.236993
 30
0.0
 10
122.744591
 20
668.236993
 30
0.0
  0
SPLINE
  5
155
100
AcDbEntity
  8
Layer_1
 62
7
100
AcDbSpline
 70
8
 71
3
 72
8
 73
4
 74
0
 40
0
 40
0
 40
0
 40
0
 40
1
 40
1
 40
1
 40
1
 10
122.744591
 20
668.236993
 30
0.0
 10
123.139864
 20
668.236993
 30
0.0
 10
123.452488
 20
668.384321
 30
0.0
 10
123.682465
 20
668.678979
 30
0.0
  0
SPLINE
  5
156
100
AcDbEntity
  8
Layer_1
 62
7
100
AcDbSpline
 70
8
 71
3
 72
8
 73
4
 74
0
 40
0
 40
0
 40
0
 40
0
 40
1
 40
1
 40
1
 40
1
 10
123.682465
 20
668.678979
 30
0.0
 10
123.914238
 20
668.973637
 30
0.0
 10
124.030125
 20
669.374300
 30
0.0
 10
124.030125
 20
669.880967
 30
0.0
  0
SPLINE
  5
157
100
AcDbEntity
  8
Layer_1
 62
7
100
AcDbSpline
 70
8
 71
3
 72
8
 73
4
 74
0
 40
0
 40
0
 40
0
 40
0
 40
1
 40
1
 40
1
 40
1
 10
124.030125
 20
669.880967
 30
0.0
 10
124.030125
 20
670.389431
 30
0.0
 10
123.914238
 20
670.790992
 30
0.0
 10
123.682465
 20
671.085650
 30
0.0
  0
SPLINE
  5
158
100
AcDbEntity
  8
Layer_1
 62
7
100
AcDbSpline
 70
8
 71
3
 72
8
 73
4
 74
0
 40
0
 40
0
 40
0
 40
0
 40
1
 40
1
 40
1
 40
1
 10
123.682465
 20
671.085650
 30
0.0
 10
123.452488
 20
671.380307
 30
0.0
 10
123.139864
 20
671.527636
 30
0.0
 10
122.744591
 20
671.527636
 30
0.0
  0
LWPOLYLINE
  5
159
100
AcDbEntity
  8
Layer_1
 62
7
100
AcDbPolyline
 90
3
 70
0
 10
118.866428
 20
667.873162
 30
0.0
 10
117.421887
 20
667.873162
 30
0.0
 10
117.421887
 20
671.896857
 30
0.0
  0
SPLINE
  5
15a
100
AcDbEntity
  8
Layer_1
 62
7
100
AcDbSpline
 70
8
 71
3
 72
8
 73
4
 74
0
 40
0
 40
0
 40
0
 40
0
 40
1
 40
1
 40
1
 40
1
 10
122.744591
 20
671.969623
 30
0.0
 10
123.308753
 20
671.969623
 30
0.0
 10
123.759723
 20
671.780072
 30
0.0
 10
124.097501
 20
671.400969
 30
0.0
  0
SPLINE
  5
15b
100
AcDbEntity
  8
Layer_1
 62
7
100
AcDbSpline
 70
8
 71
3
 72
8
 73
4
 74
0
 40
0
 40
0
 40
0
 40
0
 40
1
 40
1
 40
1
 40
1
 10
124.097501
 20
671.400969
 30
0.0
 10
124.435279
 20
671.023664
 30
0.0
 10
124.604169
 20
670.516997
 30
0.0
 10
124.604169
 20
669.880967
 30
0.0
  0
SPLINE
  5
15c
100
AcDbEntity
  8
Layer_1
 62
7
100
AcDbSpline
 70
8
 71
3
 72
8
 73
4
 74
0
 40
0
 40
0
 40
0
 40
0
 40
1
 40
1
 40
1
 40
1
 10
124.604169
 20
669.880967
 30
0.0
 10
124.604169
 20
669.246734
 30
0.0
 10
124.435279
 20
668.740067
 30
0.0
 10
124.097501
 20
668.360964
 30
0.0
  0
SPLINE
  5
15d
100
AcDbEntity
  8
Layer_1
 62
7
100
AcDbSpline
 70
8
 71
3
 72
8
 73
4
 74
0
 40
0
 40
0
 40
0
 40
0
 40
1
 40
1
 40
1
 40
1
 10
124.097501
 20
668.360964
 30
0.0
 10
123.759723
 20
667.983659
 30
0.0
 10
123.308753
 20
667.795006
 30
0.0
 10
122.744591
 20
667.795006
 30
0.0
  0
SPLINE
  5
15e
100
AcDbEntity
  8
Layer_1
 62
7
100
AcDbSpline
 70
8
 71
3
 72
8
 73
4
 74
0
 40
0
 40
0
 40
0
 40
0
 40
1
 40
1
 40
1
 40
1
 10
122.744591
 20
667.795006
 30
0.0
 10
122.178633
 20
667.795006
 30
0.0
 10
121.725866
 20
667.983659
 30
0.0
 10
121.386291
 20
668.360964
 30
0.0
  0
SPLINE
  5
15f
100
AcDbEntity
  8
Layer_1
 62
7
100
AcDbSpline
 70
8
 71
3
 72
8
 73
4
 74
0
 40
0
 40
0
 40
0
 40
0
 40
1
 40
1
 40
1
 40
1
 10
121.386291
 20
668.360964
 30
0.0
 10
121.048513
 20
668.738270
 30
0.0
 10
120.879624
 20
669.244937
 30
0.0
 10
120.879624
 20
669.880967
 30
0.0
  0
SPLINE
  5
160
100
AcDbEntity
  8
Layer_1
 62
7
100
AcDbSpline
 70
8
 71
3
 72
8
 73
4
 74
0
 40
0
 40
0
 40
0
 40
0
 40
1
 40
1
 40
1
 40
1
 10
120.879624
 20
669.880967
 30
0.0
 10
120.879624
 20
670.516997
 30
0.0
 10
121.048513
 20
671.023664
 30
0.0
 10
121.386291
 20
671.400969
 30
0.0
  0
SPLINE
  5
161
100
AcDbEntity
  8
Layer_1
 62
7
100
AcDbSpline
 70
8
 71
3
 72
8
 73
4
 74
0
 40
0
 40
0
 40
0
 40
0
 40
1
 40
1
 40
1
 40
1
 10
121.386291
 20
671.400969
 30
0.0
 10
121.725866
 20
671.780072
 30
0.0
 10
122.178633
 20
671.969623
 30
0.0
 10
122.744591
 20
671.969623
 30
0.0
  0
LWPOLYLINE
  5
162
100
AcDbEntity
  8
Layer_1
 62
7
100
AcDbPolyline
 90
1
 70
1
 10
122.744591
 20
671.527636
 30
0.0
  0
LWPOLYLINE
  5
163
100
AcDbEntity
  8
Layer_1
 62
7
100
AcDbPolyline
 90
1
 70
1
 10
122.744591
 20
671.969623
 30
0.0
  0
LWPOLYLINE
  5
164
100
AcDbEntity
  8
Layer_1
 62
7
100
AcDbPolyline
 90
8
 70
1
 10
124.897928
 20
671.896857
 30
0.0
 10
128.301763
 20
671.896857
 30
0.0
 10
128.301763
 20
671.438700
 30
0.0
 10
126.873392
 20
671.438700
 30
0.0
 10
126.873392
 20
667.873162
 30
0.0
 10
126.326298
 20
667.873162
 30
0.0
 10
126.326298
 20
671.438700
 30
0.0
 10
124.897928
 20
671.438700
 30
0.0
  0
LWPOLYLINE
  5
165
100
AcDbEntity
  8
Layer_1
 62
7
100
AcDbPolyline
 90
4
 70
1
 10
128.827296
 20
671.896857
 30
0.0
 10
129.371695
 20
671.896857
 30
0.0
 10
129.371695
 20
667.873162
 30
0.0
 10
128.827296
 20
667.873162
 30
0.0
  0
SPLINE
  5
166
100
AcDbEntity
  8
Layer_1
 62
7
100
AcDbSpline
 70
8
 71
3
 72
8
 73
4
 74
0
 40
0
 40
0
 40
0
 40
0
 40
1
 40
1
 40
1
 40
1
 10
133.468154
 20
671.012883
 30
0.0
 10
133.284891
 20
671.183569
 30
0.0
 10
133.089052
 20
671.311135
 30
0.0
 10
132.880635
 20
671.395579
 30
0.0
  0
SPLINE
  5
167
100
AcDbEntity
  8
Layer_1
 62
7
100
AcDbSpline
 70
8
 71
3
 72
8
 73
4
 74
0
 40
0
 40
0
 40
0
 40
0
 40
1
 40
1
 40
1
 40
1
 10
132.880635
 20
671.395579
 30
0.0
 10
132.674015
 20
671.480024
 30
0.0
 10
132.453920
 20
671.522246
 30
0.0
 10
132.220350
 20
671.522246
 30
0.0
  0
SPLINE
  5
168
100
AcDbEntity
  8
Layer_1
 62
7
100
AcDbSpline
 70
8
 71
3
 72
8
 73
4
 74
0
 40
0
 40
0
 40
0
 40
0
 40
1
 40
1
 40
1
 40
1
 10
132.220350
 20
671.522246
 30
0.0
 10
131.760397
 20
671.522246
 30
0.0
 10
131.408245
 20
671.381206
 30
0.0
 10
131.163895
 20
671.099125
 30
0.0
  0
SPLINE
  5
169
100
AcDbEntity
  8
Layer_1
 62
7
100
AcDbSpline
 70
8
 71
3
 72
8
 73
4
 74
0
 40
0
 40
0
 40
0
 40
0
 40
1
 40
1
 40
1
 40
1
 10
131.163895
 20
671.099125
 30
0.0
 10
130.919544
 20
670.818841
 30
0.0
 10
130.797369
 20
670.412788
 30
0.0
 10
130.797369
 20
669.880967
 30
0.0
  0
SPLINE
  5
16a
100
AcDbEntity
  8
Layer_1
 62
7
100
AcDbSpline
 70
8
 71
3
 72
8
 73
4
 74
0
 40
0
 40
0
 40
0
 40
0
 40
1
 40
1
 40
1
 40
1
 10
130.797369
 20
669.880967
 30
0.0
 10
130.797369
 20
669.350943
 30
0.0
 10
130.919544
 20
668.944890
 30
0.0
 10
131.163895
 20
668.662809
 30
0.0
  0
SPLINE
  5
16b
100
AcDbEntity
  8
Layer_1
 62
7
100
AcDbSpline
 70
8
 71
3
 72
8
 73
4
 74
0
 40
0
 40
0
 40
0
 40
0
 40
1
 40
1
 40
1
 40
1
 10
131.163895
 20
668.662809
 30
0.0
 10
131.408245
 20
668.382525
 30
0.0
 10
131.760397
 20
668.242383
 30
0.0
 10
132.220350
 20
668.242383
 30
0.0
  0
SPLINE
  5
16c
100
AcDbEntity
  8
Layer_1
 62
7
100
AcDbSpline
 70
8
 71
3
 72
8
 73
4
 74
0
 40
0
 40
0
 40
0
 40
0
 40
1
 40
1
 40
1
 40
1
 10
132.220350
 20
668.242383
 30
0.0
 10
132.453920
 20
668.242383
 30
0.0
 10
132.674015
 20
668.284605
 30
0.0
 10
132.880635
 20
668.369050
 30
0.0
  0
SPLINE
  5
16d
100
AcDbEntity
  8
Layer_1
 62
7
100
AcDbSpline
 70
8
 71
3
 72
8
 73
4
 74
0
 40
0
 40
0
 40
0
 40
0
 40
1
 40
1
 40
1
 40
1
 10
132.880635
 20
668.369050
 30
0.0
 10
133.089052
 20
668.453494
 30
0.0
 10
133.284891
 20
668.581059
 30
0.0
 10
133.468154
 20
668.751745
 30
0.0
  0
LWPOLYLINE
  5
16e
100
AcDbEntity
  8
Layer_1
 62
7
100
AcDbPolyline
 90
2
 70
0
 10
133.468154
 20
671.586927
 30
0.0
 10
133.468154
 20
671.012883
 30
0.0
  0
SPLINE
  5
16f
100
AcDbEntity
  8
Layer_1
 62
7
100
AcDbSpline
 70
8
 71
3
 72
8
 73
4
 74
0
 40
0
 40
0
 40
0
 40
0
 40
1
 40
1
 40
1
 40
1
 10
133.468154
 20
668.183092
 30
0.0
 10
133.277704
 20
668.053730
 30
0.0
 10
133.075576
 20
667.956709
 30
0.0
 10
132.861770
 20
667.892027
 30
0.0
  0
SPLINE
  5
170
100
AcDbEntity
  8
Layer_1
 62
7
100
AcDbSpline
 70
8
 71
3
 72
8
 73
4
 74
0
 40
0
 40
0
 40
0
 40
0
 40
1
 40
1
 40
1
 40
1
 10
132.861770
 20
667.892027
 30
0.0
 10
132.649760
 20
667.827347
 30
0.0
 10
132.425173
 20
667.795006
 30
0.0
 10
132.188010
 20
667.795006
 30
0.0
  0
SPLINE
  5
171
100
AcDbEntity
  8
Layer_1
 62
7
100
AcDbSpline
 70
8
 71
3
 72
8
 73
4
 74
0
 40
0
 40
0
 40
0
 40
0
 40
1
 40
1
 40
1
 40
1
 10
132.188010
 20
667.795006
 30
0.0
 10
131.578931
 20
667.795006
 30
0.0
 10
131.099214
 20
667.980964
 30
0.0
 10
130.748859
 20
668.352879
 30
0.0
  0
SPLINE
  5
172
100
AcDbEntity
  8
Layer_1
 62
7
100
AcDbSpline
 70
8
 71
3
 72
8
 73
4
 74
0
 40
0
 40
0
 40
0
 40
0
 40
1
 40
1
 40
1
 40
1
 10
130.748859
 20
668.352879
 30
0.0
 10
130.398503
 20
668.726591
 30
0.0
 10
130.223326
 20
669.235954
 30
0.0
 10
130.223326
 20
669.880967
 30
0.0
  0
SPLINE
  5
173
100
AcDbEntity
  8
Layer_1
 62
7
100
AcDbSpline
 70
8
 71
3
 72
8
 73
4
 74
0
 40
0
 40
0
 40
0
 40
0
 40
1
 40
1
 40
1
 40
1
 10
130.223326
 20
669.880967
 30
0.0
 10
130.223326
 20
670.527777
 30
0.0
 10
130.398503
 20
671.037139
 30
0.0
 10
130.748859
 20
671.409055
 30
0.0
  0
SPLINE
  5
174
100
AcDbEntity
  8
Layer_1
 62
7
100
AcDbSpline
 70
8
 71
3
 72
8
 73
4
 74
0
 40
0
 40
0
 40
0
 40
0
 40
1
 40
1
 40
1
 40
1
 10
130.748859
 20
671.409055
 30
0.0
 10
131.099214
 20
671.782767
 30
0.0
 10
131.578931
 20
671.969623
 30
0.0
 10
132.188010
 20
671.969623
 30
0.0
  0
SPLINE
  5
175
100
AcDbEntity
  8
Layer_1
 62
7
100
AcDbSpline
 70
8
 71
3
 72
8
 73
4
 74
0
 40
0
 40
0
 40
0
 40
0
 40
1
 40
1
 40
1
 40
1
 10
132.188010
 20
671.969623
 30
0.0
 10
132.428767
 20
671.969623
 30
0.0
 10
132.655150
 20
671.937282
 30
0.0
 10
132.867160
 20
671.872601
 30
0.0
  0
SPLINE
  5
176
100
AcDbEntity
  8
Layer_1
 62
7
100
AcDbSpline
 70
8
 71
3
 72
8
 73
4
 74
0
 40
0
 40
0
 40
0
 40
0
 40
1
 40
1
 40
1
 40
1
 10
132.867160
 20
671.872601
 30
0.0
 10
133.080966
 20
671.809717
 30
0.0
 10
133.281298
 20
671.714492
 30
0.0
 10
133.468154
 20
671.586927
 30
0.0
  0
LWPOLYLINE
  5
177
100
AcDbEntity
  8
Layer_1
 62
7
100
AcDbPolyline
 90
2
 70
0
 10
133.468154
 20
668.751745
 30
0.0
 10
133.468154
 20
668.183092
 30
0.0
  0
LWPOLYLINE
  5
178
100
AcDbEntity
  8
Layer_1
 62
7
100
AcDbPolyline
 90
1
 70
1
 10
133.468154
 20
671.586927
 30
0.0
  0
SPLINE
  5
179
100
AcDbEntity
  8
Layer_1
 62
7
100
AcDbSpline
 70
8
 71
3
 72
8
 73
4
 74
0
 40
0
 40
0
 40
0
 40
0
 40
1
 40
1
 40
1
 40
1
 10
136.721068
 20
671.233877
 30
0.0
 10
136.514447
 20
671.332695
 30
0.0
 10
136.319505
 20
671.406359
 30
0.0
 10
136.136244
 20
671.454870
 30
0.0
  0
SPLINE
  5
17a
100
AcDbEntity
  8
Layer_1
 62
7
100
AcDbSpline
 70
8
 71
3
 72
8
 73
4
 74
0
 40
0
 40
0
 40
0
 40
0
 40
1
 40
1
 40
1
 40
1
 10
136.136244
 20
671.454870
 30
0.0
 10
135.952981
 20
671.503381
 30
0.0
 10
135.776006
 20
671.527636
 30
0.0
 10
135.605320
 20
671.527636
 30
0.0
  0
SPLINE
  5
17b
100
AcDbEntity
  8
Layer_1
 62
7
100
AcDbSpline
 70
8
 71
3
 72
8
 73
4
 74
0
 40
0
 40
0
 40
0
 40
0
 40
1
 40
1
 40
1
 40
1
 10
135.605320
 20
671.527636
 30
0.0
 10
135.308866
 20
671.527636
 30
0.0
 10
135.079787
 20
671.470142
 30
0.0
 10
134.918085
 20
671.355154
 30
0.0
  0
SPLINE
  5
17c
100
AcDbEntity
  8
Layer_1
 62
7
100
AcDbSpline
 70
8
 71
3
 72
8
 73
4
 74
0
 40
0
 40
0
 40
0
 40
0
 40
1
 40
1
 40
1
 40
1
 10
134.918085
 20
671.355154
 30
0.0
 10
134.758179
 20
671.240165
 30
0.0
 10
134.678227
 20
671.076666
 30
0.0
 10
134.678227
 20
670.864656
 30
0.0
  0
SPLINE
  5
17d
100
AcDbEntity
  8
Layer_1
 62
7
100
AcDbSpline
 70
8
 71
3
 72
8
 73
4
 74
0
 40
0
 40
0
 40
0
 40
0
 40
1
 40
1
 40
1
 40
1
 10
134.678227
 20
670.864656
 30
0.0
 10
134.678227
 20
670.686784
 30
0.0
 10
134.731229
 20
670.552032
 30
0.0
 10
134.837234
 20
670.460400
 30
0.0
  0
SPLINE
  5
17e
100
AcDbEntity
  8
Layer_1
 62
7
100
AcDbSpline
 70
8
 71
3
 72
8
 73
4
 74
0
 40
0
 40
0
 40
0
 40
0
 40
1
 40
1
 40
1
 40
1
 10
134.837234
 20
670.460400
 30
0.0
 10
134.945035
 20
670.370566
 30
0.0
 10
135.148062
 20
670.297800
 30
0.0
 10
135.446313
 20
670.242102
 30
0.0
  0
LWPOLYLINE
  5
17f
100
AcDbEntity
  8
Layer_1
 62
7
100
AcDbPolyline
 90
2
 70
0
 10
136.721068
 20
671.764800
 30
0.0
 10
136.721068
 20
671.233877
 30
0.0
  0
SPLINE
  5
180
100
AcDbEntity
  8
Layer_1
 62
7
100
AcDbSpline
 70
8
 71
3
 72
8
 73
4
 74
0
 40
0
 40
0
 40
0
 40
0
 40
1
 40
1
 40
1
 40
1
 10
135.775108
 20
670.174726
 30
0.0
 10
136.181160
 20
670.097468
 30
0.0
 10
136.480309
 20
669.960920
 30
0.0
 10
136.672554
 20
669.765080
 30
0.0
  0
SPLINE
  5
181
100
AcDbEntity
  8
Layer_1
 62
7
100
AcDbSpline
 70
8
 71
3
 72
8
 73
4
 74
0
 40
0
 40
0
 40
0
 40
0
 40
1
 40
1
 40
1
 40
1
 10
136.672554
 20
669.765080
 30
0.0
 10
136.866599
 20
669.571037
 30
0.0
 10
136.963621
 20
669.310517
 30
0.0
 10
136.963621
 20
668.983519
 30
0.0
  0
SPLINE
  5
182
100
AcDbEntity
  8
Layer_1
 62
7
100
AcDbSpline
 70
8
 71
3
 72
8
 73
4
 74
0
 40
0
 40
0
 40
0
 40
0
 40
1
 40
1
 40
1
 40
1
 10
136.963621
 20
668.983519
 30
0.0
 10
136.963621
 20
668.593636
 30
0.0
 10
136.832463
 20
668.298080
 30
0.0
 10
136.570146
 20
668.096851
 30
0.0
  0
SPLINE
  5
183
100
AcDbEntity
  8
Layer_1
 62
7
100
AcDbSpline
 70
8
 71
3
 72
8
 73
4
 74
0
 40
0
 40
0
 40
0
 40
0
 40
1
 40
1
 40
1
 40
1
 10
136.570146
 20
668.096851
 30
0.0
 10
136.309625
 20
667.895621
 30
0.0
 10
135.926929
 20
667.795006
 30
0.0
 10
135.422057
 20
667.795006
 30
0.0
  0
SPLINE
  5
184
100
AcDbEntity
  8
Layer_1
 62
7
100
AcDbSpline
 70
8
 71
3
 72
8
 73
4
 74
0
 40
0
 40
0
 40
0
 40
0
 40
1
 40
1
 40
1
 40
1
 10
135.422057
 20
667.795006
 30
0.0
 10
135.231608
 20
667.795006
 30
0.0
 10
135.028582
 20
667.816567
 30
0.0
 10
134.812979
 20
667.859687
 30
0.0
  0
SPLINE
  5
185
100
AcDbEntity
  8
Layer_1
 62
7
100
AcDbSpline
 70
8
 71
3
 72
8
 73
4
 74
0
 40
0
 40
0
 40
0
 40
0
 40
1
 40
1
 40
1
 40
1
 10
134.812979
 20
667.859687
 30
0.0
 10
134.599172
 20
667.902808
 30
0.0
 10
134.377280
 20
667.966590
 30
0.0
 10
134.147304
 20
668.051035
 30
0.0
  0
LWPOLYLINE
  5
186
100
AcDbEntity
  8
Layer_1
 62
7
100
AcDbPolyline
 90
2
 70
0
 10
135.446313
 20
670.242102
 30
0.0
 10
135.775108
 20
670.174726
 30
0.0
  0
SPLINE
  5
187
100
AcDbEntity
  8
Layer_1
 62
7
100
AcDbSpline
 70
8
 71
3
 72
8
 73
4
 74
0
 40
0
 40
0
 40
0
 40
0
 40
1
 40
1
 40
1
 40
1
 10
134.147304
 20
668.611603
 30
0.0
 10
134.368297
 20
668.487631
 30
0.0
 10
134.584798
 20
668.394203
 30
0.0
 10
134.796808
 20
668.331319
 30
0.0
  0
SPLINE
  5
188
100
AcDbEntity
  8
Layer_1
 62
7
100
AcDbSpline
 70
8
 71
3
 72
8
 73
4
 74
0
 40
0
 40
0
 40
0
 40
0
 40
1
 40
1
 40
1
 40
1
 10
134.796808
 20
668.331319
 30
0.0
 10
135.008818
 20
668.268435
 30
0.0
 10
135.217235
 20
668.236993
 30
0.0
 10
135.422057
 20
668.236993
 30
0.0
  0
SPLINE
  5
189
100
AcDbEntity
  8
Layer_1
 62
7
100
AcDbSpline
 70
8
 71
3
 72
8
 73
4
 74
0
 40
0
 40
0
 40
0
 40
0
 40
1
 40
1
 40
1
 40
1
 10
135.422057
 20
668.236993
 30
0.0
 10
135.732885
 20
668.236993
 30
0.0
 10
135.972744
 20
668.298080
 30
0.0
 10
136.141633
 20
668.420255
 30
0.0
  0
SPLINE
  5
18a
100
AcDbEntity
  8
Layer_1
 62
7
100
AcDbSpline
 70
8
 71
3
 72
8
 73
4
 74
0
 40
0
 40
0
 40
0
 40
0
 40
1
 40
1
 40
1
 40
1
 10
136.141633
 20
668.420255
 30
0.0
 10
136.310524
 20
668.542431
 30
0.0
 10
136.394969
 20
668.716710
 30
0.0
 10
136.394969
 20
668.943093
 30
0.0
  0
SPLINE
  5
18b
100
AcDbEntity
  8
Layer_1
 62
7
100
AcDbSpline
 70
8
 71
3
 72
8
 73
4
 74
0
 40
0
 40
0
 40
0
 40
0
 40
1
 40
1
 40
1
 40
1
 10
136.394969
 20
668.943093
 30
0.0
 10
136.394969
 20
669.140729
 30
0.0
 10
136.333880
 20
669.295245
 30
0.0
 10
136.211703
 20
669.406640
 30
0.0
  0
SPLINE
  5
18c
100
AcDbEntity
  8
Layer_1
 62
7
100
AcDbSpline
 70
8
 71
3
 72
8
 73
4
 74
0
 40
0
 40
0
 40
0
 40
0
 40
1
 40
1
 40
1
 40
1
 10
136.211703
 20
669.406640
 30
0.0
 10
136.091325
 20
669.518035
 30
0.0
 10
135.892791
 20
669.601581
 30
0.0
 10
135.616100
 20
669.657279
 30
0.0
  0
LWPOLYLINE
  5
18d
100
AcDbEntity
  8
Layer_1
 62
7
100
AcDbPolyline
 90
2
 70
0
 10
134.147304
 20
668.051035
 30
0.0
 10
134.147304
 20
668.611603
 30
0.0
  0
SPLINE
  5
18e
100
AcDbEntity
  8
Layer_1
 62
7
100
AcDbSpline
 70
8
 71
3
 72
8
 73
4
 74
0
 40
0
 40
0
 40
0
 40
0
 40
1
 40
1
 40
1
 40
1
 10
135.284611
 20
669.721959
 30
0.0
 10
134.878558
 20
669.802811
 30
0.0
 10
134.584799
 20
669.929478
 30
0.0
 10
134.403332
 20
670.101960
 30
0.0
  0
SPLINE
  5
18f
100
AcDbEntity
  8
Layer_1
 62
7
100
AcDbSpline
 70
8
 71
3
 72
8
 73
4
 74
0
 40
0
 40
0
 40
0
 40
0
 40
1
 40
1
 40
1
 40
1
 10
134.403332
 20
670.101960
 30
0.0
 10
134.221866
 20
670.274443
 30
0.0
 10
134.131133
 20
670.514301
 30
0.0
 10
134.131133
 20
670.821536
 30
0.0
  0
SPLINE
  5
190
100
AcDbEntity
  8
Layer_1
 62
7
100
AcDbSpline
 70
8
 71
3
 72
8
 73
4
 74
0
 40
0
 40
0
 40
0
 40
0
 40
1
 40
1
 40
1
 40
1
 10
134.131133
 20
670.821536
 30
0.0
 10
134.131133
 20
671.177281
 30
0.0
 10
134.256004
 20
671.457565
 30
0.0
 10
134.505744
 20
671.662388
 30
0.0
  0
SPLINE
  5
191
100
AcDbEntity
  8
Layer_1
 62
7
100
AcDbSpline
 70
8
 71
3
 72
8
 73
4
 74
0
 40
0
 40
0
 40
0
 40
0
 40
1
 40
1
 40
1
 40
1
 10
134.505744
 20
671.662388
 30
0.0
 10
134.757281
 20
671.867211
 30
0.0
 10
135.103144
 20
671.969623
 30
0.0
 10
135.543334
 20
671.969623
 30
0.0
  0
SPLINE
  5
192
100
AcDbEntity
  8
Layer_1
 62
7
100
AcDbSpline
 70
8
 71
3
 72
8
 73
4
 74
0
 40
0
 40
0
 40
0
 40
0
 40
1
 40
1
 40
1
 40
1
 10
135.543334
 20
671.969623
 30
0.0
 10
135.731987
 20
671.969623
 30
0.0
 10
135.924233
 20
671.952554
 30
0.0
 10
136.120073
 20
671.918417
 30
0.0
  0
SPLINE
  5
193
100
AcDbEntity
  8
Layer_1
 62
7
100
AcDbSpline
 70
8
 71
3
 72
8
 73
4
 74
0
 40
0
 40
0
 40
0
 40
0
 40
1
 40
1
 40
1
 40
1
 10
136.120073
 20
671.918417
 30
0.0
 10
136.315911
 20
671.884280
 30
0.0
 10
136.516243
 20
671.833074
 30
0.0
 10
136.721068
 20
671.764800
 30
0.0
  0
LWPOLYLINE
  5
194
100
AcDbEntity
  8
Layer_1
 62
7
100
AcDbPolyline
 90
2
 70
0
 10
135.616100
 20
669.657279
 30
0.0
 10
135.284611
 20
669.721959
 30
0.0
  0
LWPOLYLINE
  5
195
100
AcDbEntity
  8
Layer_1
 62
7
100
AcDbPolyline
 90
1
 70
1
 10
136.721068
 20
671.764800
 30
0.0
  0
LWPOLYLINE
  5
196
100
AcDbEntity
  8
Layer_1
 62
7
100
AcDbPolyline
 90
6
 70
1
 10
109.242441
 20
664.997555
 30
0.0
 10
109.786839
 20
664.997555
 30
0.0
 10
109.786839
 20
661.432017
 30
0.0
 10
111.746133
 20
661.432017
 30
0.0
 10
111.746133
 20
660.973861
 30
0.0
 10
109.242441
 20
660.973861
 30
0.0
  0
LWPOLYLINE
  5
197
100
AcDbEntity
  8
Layer_1
 62
7
100
AcDbPolyline
 90
3
 70
1
 10
113.788973
 20
664.461242
 30
0.0
 10
113.050532
 20
662.458827
 30
0.0
 10
114.530109
 20
662.458827
 30
0.0
  0
LWPOLYLINE
  5
198
100
AcDbEntity
  8
Layer_1
 62
7
100
AcDbPolyline
 90
8
 70
1
 10
113.481739
 20
664.997555
 30
0.0
 10
114.098903
 20
664.997555
 30
0.0
 10
115.632380
 20
660.973861
 30
0.0
 10
115.066422
 20
660.973861
 30
0.0
 10
114.699897
 20
662.006061
 30
0.0
 10
112.886135
 20
662.006061
 30
0.0
 10
112.519609
 20
660.973861
 30
0.0
 10
111.945566
 20
660.973861
 30
0.0
  0
SPLINE
  5
199
100
AcDbEntity
  8
Layer_1
 62
7
100
AcDbSpline
 70
8
 71
3
 72
8
 73
4
 74
0
 40
0
 40
0
 40
0
 40
0
 40
1
 40
1
 40
1
 40
1
 10
117.637490
 20
661.421237
 30
0.0
 10
117.930351
 20
661.421237
 30
0.0
 10
118.146852
 20
661.481426
 30
0.0
 10
118.286995
 20
661.601805
 30
0.0
  0
SPLINE
  5
19a
100
AcDbEntity
  8
Layer_1
 62
7
100
AcDbSpline
 70
8
 71
3
 72
8
 73
4
 74
0
 40
0
 40
0
 40
0
 40
0
 40
1
 40
1
 40
1
 40
1
 10
118.286995
 20
661.601805
 30
0.0
 10
118.428933
 20
661.723980
 30
0.0
 10
118.499903
 20
661.909938
 30
0.0
 10
118.499903
 20
662.159678
 30
0.0
  0
SPLINE
  5
19b
100
AcDbEntity
  8
Layer_1
 62
7
100
AcDbSpline
 70
8
 71
3
 72
8
 73
4
 74
0
 40
0
 40
0
 40
0
 40
0
 40
1
 40
1
 40
1
 40
1
 10
118.499903
 20
662.159678
 30
0.0
 10
118.499903
 20
662.411215
 30
0.0
 10
118.428933
 20
662.596274
 30
0.0
 10
118.286995
 20
662.714856
 30
0.0
  0
SPLINE
  5
19c
100
AcDbEntity
  8
Layer_1
 62
7
100
AcDbSpline
 70
8
 71
3
 72
8
 73
4
 74
0
 40
0
 40
0
 40
0
 40
0
 40
1
 40
1
 40
1
 40
1
 10
118.286995
 20
662.714856
 30
0.0
 10
118.146852
 20
662.835235
 30
0.0
 10
117.930351
 20
662.895424
 30
0.0
 10
117.637490
 20
662.895424
 30
0.0
  0
LWPOLYLINE
  5
19d
100
AcDbEntity
  8
Layer_1
 62
7
100
AcDbPolyline
 90
3
 70
0
 10
116.764297
 20
662.895424
 30
0.0
 10
116.764297
 20
661.421237
 30
0.0
 10
117.637490
 20
661.421237
 30
0.0
  0
LWPOLYLINE
  5
19e
100
AcDbEntity
  8
Layer_1
 62
7
100
AcDbPolyline
 90
2
 70
0
 10
117.637490
 20
662.895424
 30
0.0
 10
116.764297
 20
662.895424
 30
0.0
  0
SPLINE
  5
19f
100
AcDbEntity
  8
Layer_1
 62
7
100
AcDbSpline
 70
8
 71
3
 72
8
 73
4
 74
0
 40
0
 40
0
 40
0
 40
0
 40
1
 40
1
 40
1
 40
1
 10
117.570114
 20
663.337410
 30
0.0
 10
117.836025
 20
663.337410
 30
0.0
 10
118.033661
 20
663.386819
 30
0.0
 10
118.163023
 20
663.485638
 30
0.0
  0
SPLINE
  5
1a0
100
AcDbEntity
  8
Layer_1
 62
7
100
AcDbSpline
 70
8
 71
3
 72
8
 73
4
 74
0
 40
0
 40
0
 40
0
 40
0
 40
1
 40
1
 40
1
 40
1
 10
118.163023
 20
663.485638
 30
0.0
 10
118.294182
 20
663.586252
 30
0.0
 10
118.359761
 20
663.738971
 30
0.0
 10
118.359761
 20
663.943794
 30
0.0
  0
SPLINE
  5
1a1
100
AcDbEntity
  8
Layer_1
 62
7
100
AcDbSpline
 70
8
 71
3
 72
8
 73
4
 74
0
 40
0
 40
0
 40
0
 40
0
 40
1
 40
1
 40
1
 40
1
 10
118.359761
 20
663.943794
 30
0.0
 10
118.359761
 20
664.146821
 30
0.0
 10
118.294182
 20
664.298641
 30
0.0
 10
118.163023
 20
664.399256
 30
0.0
  0
SPLINE
  5
1a2
100
AcDbEntity
  8
Layer_1
 62
7
100
AcDbSpline
 70
8
 71
3
 72
8
 73
4
 74
0
 40
0
 40
0
 40
0
 40
0
 40
1
 40
1
 40
1
 40
1
 10
118.163023
 20
664.399256
 30
0.0
 10
118.033661
 20
664.499871
 30
0.0
 10
117.836025
 20
664.550178
 30
0.0
 10
117.570114
 20
664.550178
 30
0.0
  0
LWPOLYLINE
  5
1a3
100
AcDbEntity
  8
Layer_1
 62
7
100
AcDbPolyline
 90
3
 70
0
 10
116.764297
 20
664.550178
 30
0.0
 10
116.764297
 20
663.337410
 30
0.0
 10
117.570114
 20
663.337410
 30
0.0
  0
LWPOLYLINE
  5
1a4
100
AcDbEntity
  8
Layer_1
 62
7
100
AcDbPolyline
 90
2
 70
0
 10
117.570114
 20
664.550178
 30
0.0
 10
116.764297
 20
664.550178
 30
0.0
  0
SPLINE
  5
1a5
100
AcDbEntity
  8
Layer_1
 62
7
100
AcDbSpline
 70
8
 71
3
 72
8
 73
4
 74
0
 40
0
 40
0
 40
0
 40
0
 40
1
 40
1
 40
1
 40
1
 10
117.610540
 20
664.997555
 30
0.0
 10
118.025576
 20
664.997555
 30
0.0
 10
118.345387
 20
664.911313
 30
0.0
 10
118.569974
 20
664.738831
 30
0.0
  0
SPLINE
  5
1a6
100
AcDbEntity
  8
Layer_1
 62
7
100
AcDbSpline
 70
8
 71
3
 72
8
 73
4
 74
0
 40
0
 40
0
 40
0
 40
0
 40
1
 40
1
 40
1
 40
1
 10
118.569974
 20
664.738831
 30
0.0
 10
118.794560
 20
664.566348
 30
0.0
 10
118.906854
 20
664.321100
 30
0.0
 10
118.906854
 20
664.003085
 30
0.0
  0
SPLINE
  5
1a7
100
AcDbEntity
  8
Layer_1
 62
7
100
AcDbSpline
 70
8
 71
3
 72
8
 73
4
 74
0
 40
0
 40
0
 40
0
 40
0
 40
1
 40
1
 40
1
 40
1
 10
118.906854
 20
664.003085
 30
0.0
 10
118.906854
 20
663.756938
 30
0.0
 10
118.849360
 20
663.561099
 30
0.0
 10
118.734371
 20
663.415566
 30
0.0
  0
SPLINE
  5
1a8
100
AcDbEntity
  8
Layer_1
 62
7
100
AcDbSpline
 70
8
 71
3
 72
8
 73
4
 74
0
 40
0
 40
0
 40
0
 40
0
 40
1
 40
1
 40
1
 40
1
 10
118.734371
 20
663.415566
 30
0.0
 10
118.619383
 20
663.270034
 30
0.0
 10
118.450494
 20
663.179301
 30
0.0
 10
118.227704
 20
663.143367
 30
0.0
  0
SPLINE
  5
1a9
100
AcDbEntity
  8
Layer_1
 62
7
100
AcDbSpline
 70
8
 71
3
 72
8
 73
4
 74
0
 40
0
 40
0
 40
0
 40
0
 40
1
 40
1
 40
1
 40
1
 10
118.227704
 20
663.143367
 30
0.0
 10
118.495411
 20
663.085873
 30
0.0
 10
118.702929
 20
662.965495
 30
0.0
 10
118.850258
 20
662.782232
 30
0.0
  0
SPLINE
  5
1aa
100
AcDbEntity
  8
Layer_1
 62
7
100
AcDbSpline
 70
8
 71
3
 72
8
 73
4
 74
0
 40
0
 40
0
 40
0
 40
0
 40
1
 40
1
 40
1
 40
1
 10
118.850258
 20
662.782232
 30
0.0
 10
118.999383
 20
662.600766
 30
0.0
 10
119.073946
 20
662.373485
 30
0.0
 10
119.073946
 20
662.100387
 30
0.0
  0
SPLINE
  5
1ab
100
AcDbEntity
  8
Layer_1
 62
7
100
AcDbSpline
 70
8
 71
3
 72
8
 73
4
 74
0
 40
0
 40
0
 40
0
 40
0
 40
1
 40
1
 40
1
 40
1
 10
119.073946
 20
662.100387
 30
0.0
 10
119.073946
 20
661.741048
 30
0.0
 10
118.951771
 20
661.463459
 30
0.0
 10
118.707421
 20
661.267620
 30
0.0
  0
SPLINE
  5
1ac
100
AcDbEntity
  8
Layer_1
 62
7
100
AcDbSpline
 70
8
 71
3
 72
8
 73
4
 74
0
 40
0
 40
0
 40
0
 40
0
 40
1
 40
1
 40
1
 40
1
 10
118.707421
 20
661.267620
 30
0.0
 10
118.463071
 20
661.071780
 30
0.0
 10
118.115411
 20
660.973861
 30
0.0
 10
117.664441
 20
660.973861
 30
0.0
  0
LWPOLYLINE
  5
1ad
100
AcDbEntity
  8
Layer_1
 62
7
100
AcDbPolyline
 90
2
 70
0
 10
116.219899
 20
664.997555
 30
0.0
 10
117.610540
 20
664.997555
 30
0.0
  0
LWPOLYLINE
  5
1ae
100
AcDbEntity
  8
Layer_1
 62
7
100
AcDbPolyline
 90
3
 70
0
 10
117.664441
 20
660.973861
 30
0.0
 10
116.219899
 20
660.973861
 30
0.0
 10
116.219899
 20
664.997555
 30
0.0
  0
ENDSEC
  0
SECTION
  2
OBJECTS
  0
DICTIONARY
  5
C
330
0
100
AcDbDictionary
  3
ACAD_GROUP
350
D
  3
ACAD_MLINESTYLE
350
17
  0
DICTIONARY
  5
D
330
C
100
AcDbDictionary
  0
DICTIONARY
  5
1A
330
C
100
AcDbDictionary
  0
DICTIONARY
  5
17
330
C
100
AcDbDictionary
  3
STANDARD
350
18
  0
DICTIONARY
  5
19
330
C
100
AcDbDictionary
  0
ENDSEC
  0
EOF
